# Blender v2.82 (sub 7) OBJ File: 'houses.blend'
# www.blender.org
mtllib cityvill.mtl
o Plane.011_Plane.017
v 0.000000 3.907399 4.000000
v 2.000000 3.907399 4.000000
v -2.000000 3.907399 4.000000
v 4.000000 3.907399 3.000000
v 2.000000 3.907399 3.000000
v -2.000000 3.907399 3.000000
v 4.000000 3.907399 -0.000000
v 4.000000 3.907399 -2.000001
v 4.000000 3.907399 2.000000
v 0.000000 3.907399 -4.000001
v 2.000000 3.907399 -4.000001
v -2.000000 3.907399 -4.000001
v 4.000000 3.907399 -3.000001
v -4.000000 3.907399 -3.000001
v 2.000000 3.907399 -3.000001
v -2.000000 3.907399 -3.000001
v -4.000000 3.907399 -0.000001
v -4.000000 3.907399 3.000000
v -4.000000 3.907399 2.000000
v -4.000000 3.907399 -2.000001
v -0.486328 5.359589 4.000000
v 0.000000 5.359589 4.000000
v 0.486328 5.359589 4.000000
v 0.486328 5.359589 1.311428
v 2.311691 5.359589 1.311428
v -0.486328 5.359589 1.311428
v 2.311691 5.359589 -0.000000
v 2.311691 5.359589 -0.874286
v -0.486328 5.359589 -4.000001
v 0.000000 5.359589 -4.000001
v 0.486328 5.359589 -4.000001
v 0.486328 5.359589 -1.311429
v 2.311691 5.359589 -1.311429
v -2.311691 5.359589 -1.311429
v -0.486328 5.359589 -1.311429
v -2.311691 5.359589 1.311428
v 2.311691 5.359589 0.874285
v -2.311691 5.359589 -0.874286
v -2.311691 5.359589 -0.000000
v -2.311691 5.359589 0.874285
v 2.000000 -0.000001 4.000000
v 4.000000 -0.000001 2.000000
v 4.000000 -0.000001 3.000000
v 2.000000 0.000000 -3.000001
v 4.000000 0.000000 -2.000001
v -2.000000 0.000000 -3.000001
v -2.000000 0.000001 -4.000001
v -2.000000 -0.000001 4.000000
v -4.000000 -0.000001 -0.000001
v 4.000000 0.000000 -3.000001
v 0.000000 0.000001 -4.000001
v -4.000000 -0.000001 3.000000
v 0.000000 -0.000001 4.000000
v 4.000000 -0.000000 -0.000000
v 2.000000 -0.000001 3.000000
v -4.000000 -0.000001 2.000000
v -4.000000 0.000000 -3.000001
v 2.000000 0.000001 -4.000001
v -2.000000 -0.000001 3.000000
v -4.000000 0.000000 -2.000001
vt 0.174318 0.555855
vt 0.336076 0.239828
vt 0.336076 0.555855
vt 0.173780 0.555855
vt 0.335538 0.239828
vt 0.335538 0.555855
vt 0.173203 0.555855
vt 0.334961 0.239829
vt 0.334961 0.555855
vt 0.343458 0.555855
vt 0.505216 0.239828
vt 0.505216 0.555855
vt 0.301186 0.238674
vt 0.381183 0.551255
vt 0.301186 0.551255
vt 0.346927 0.555855
vt 0.508685 0.239828
vt 0.508685 0.555855
vt 0.301186 0.238674
vt 0.381183 0.551255
vt 0.301186 0.551255
vt 0.346927 0.555855
vt 0.508685 0.239828
vt 0.508685 0.555855
vt 0.301186 0.238674
vt 0.381183 0.551255
vt 0.301186 0.551255
vt 0.174318 0.555855
vt 0.336076 0.239828
vt 0.336076 0.555855
vt 0.173780 0.555855
vt 0.335538 0.239828
vt 0.335538 0.555855
vt 0.163937 0.555855
vt 0.002179 0.239829
vt 0.163937 0.239829
vt 0.344689 0.555855
vt 0.506447 0.239828
vt 0.506447 0.555855
vt 0.301186 0.238674
vt 0.381183 0.551255
vt 0.301186 0.551255
vt 0.508685 0.555855
vt 0.346927 0.239828
vt 0.508685 0.239828
vt 0.301186 0.238674
vt 0.381183 0.551255
vt 0.301186 0.551255
vt 0.346927 0.555855
vt 0.508685 0.239828
vt 0.508685 0.555855
vt 0.301186 0.238674
vt 0.381183 0.551255
vt 0.301186 0.551255
vt 0.175701 0.600072
vt 0.246818 0.812429
vt 0.175701 0.812429
vt 0.349775 0.601404
vt 0.288994 0.937424
vt 0.228212 0.601404
vt 0.397998 0.787828
vt 0.502839 0.554421
vt 0.508079 0.785330
vt 0.287994 0.999866
vt 0.363812 0.754661
vt 0.411945 0.754661
vt 0.228212 0.913904
vt 0.349775 0.586097
vt 0.349775 0.913904
vt 0.228212 0.898597
vt 0.228212 0.562576
vt 0.288994 0.562576
vt 0.508212 0.999866
vt 0.508212 0.754661
vt 0.228430 0.562633
vt 0.152612 0.807839
vt 0.104479 0.807839
vt 0.172600 0.600267
vt 0.243717 0.812624
vt 0.172601 0.812624
vt 0.118426 0.774672
vt 0.013586 1.008079
vt 0.008346 0.777170
vt 0.397998 0.774672
vt 0.338539 0.562633
vt 0.118426 0.787828
vt 0.177885 0.999866
vt 0.502839 1.008079
vt 0.206879 1.001363
vt 0.287994 0.562633
vt 0.363812 0.807839
vt 0.177885 0.562634
vt 0.309545 1.001363
vt 0.228430 0.999866
vt 0.152612 0.754661
vt 0.338539 0.999866
vt 0.297600 0.600267
vt 0.226484 0.812625
vt 0.005136 0.600267
vt 0.008212 0.562633
vt 0.008212 0.807839
vt 0.008212 0.999866
vt 0.104479 0.754661
vt 0.206879 0.561137
vt 0.508212 0.562633
vt 0.411946 0.807839
vt 0.300701 0.600072
vt 0.229584 0.812429
vt 0.008236 0.600072
vt 0.013586 0.554421
vt 0.309545 0.561137
vt 0.390411 0.859269
vt 0.390411 0.913904
vt 0.162275 0.913904
vt 0.000076 0.859269
vt 0.000076 0.750000
vt 0.208090 0.238674
vt 0.128093 0.551255
vt 0.128093 0.238674
vt 0.208090 0.238674
vt 0.128093 0.551255
vt 0.128093 0.238674
vt 0.174318 0.239828
vt 0.173780 0.239829
vt 0.173203 0.239829
vt 0.343458 0.239828
vt 0.381183 0.238674
vt 0.346927 0.239828
vt 0.381183 0.238674
vt 0.346927 0.239828
vt 0.381183 0.238674
vt 0.174318 0.239828
vt 0.173780 0.239829
vt 0.002179 0.555855
vt 0.344689 0.239828
vt 0.381183 0.238674
vt 0.346927 0.555855
vt 0.381183 0.238674
vt 0.346927 0.239828
vt 0.381183 0.238674
vt 0.468166 0.600072
vt 0.349775 0.937424
vt 0.228212 0.937424
vt 0.228212 0.586097
vt 0.349775 0.562576
vt 0.349775 0.898597
vt 0.465065 0.600267
vt 0.508079 0.777170
vt 0.297601 0.812624
vt 0.008212 0.754661
vt 0.508212 0.807839
vt 0.300701 0.812429
vt 0.008346 0.785330
vt 0.162275 0.586097
vt 0.390411 0.750000
vt 0.390411 0.586096
vt 0.390411 0.640731
vt 0.000076 0.586097
vt 0.000076 0.640731
vt 0.000076 0.913904
vt 0.208090 0.551255
vt 0.208090 0.551255
vn 0.0000 0.0000 1.0000
vn 1.0000 0.0000 0.0000
vn -1.0000 0.0000 0.0000
vn 0.0000 1.0000 0.0000
vn -0.6923 0.7216 0.0000
vn -0.6521 0.7581 0.0000
vn 0.6521 0.7581 0.0000
vn 0.0000 0.0000 -1.0000
vn 0.6923 0.7216 0.0000
vn 0.0000 0.7582 -0.6520
vn 0.0000 0.7582 0.6520
usemtl SimpleHaus.003
s off
f 1/1/1 41/2/1 2/3/1
f 3/4/1 53/5/1 1/6/1
f 18/7/1 59/8/1 6/9/1
f 5/10/1 43/11/1 4/12/1
f 41/13/2 5/14/2 2/15/2
f 9/16/2 54/17/2 7/18/2
f 45/19/2 13/20/2 8/21/2
f 7/22/2 45/23/2 8/24/2
f 43/25/2 9/26/2 4/27/2
f 10/28/1 58/29/1 11/30/1
f 12/31/1 51/32/1 10/33/1
f 16/34/1 57/35/1 46/36/1
f 15/37/1 50/38/1 13/39/1
f 58/40/3 15/41/3 11/42/3
f 17/43/3 60/44/3 49/45/3
f 56/46/3 18/47/3 19/48/3
f 17/49/3 56/50/3 19/51/3
f 57/52/3 20/53/3 14/54/3
f 1/55/1 23/56/1 22/57/1
f 26/58/4 22/59/4 24/60/4
f 16/61/5 29/62/5 12/63/5
f 19/64/6 36/65/6 40/66/6
f 24/67/4 35/68/4 26/69/4
f 32/70/4 31/71/4 30/72/4
f 17/73/6 40/66/6 39/74/6
f 8/75/7 33/76/7 28/77/7
f 10/78/8 29/79/8 30/80/8
f 5/81/9 23/82/9 2/83/9
f 15/84/10 33/76/10 13/85/10
f 6/86/11 36/65/11 18/87/11
f 15/84/9 31/88/9 32/89/9
f 9/90/7 25/91/7 4/92/7
f 5/81/11 25/91/11 24/93/11
f 20/94/6 34/95/6 14/96/6
f 10/97/8 31/98/8 11/99/8
f 7/100/7 28/77/7 27/101/7
f 17/102/6 38/103/6 20/94/6
f 16/61/10 34/95/10 35/104/10
f 7/105/7 37/106/7 9/90/7
f 1/107/1 21/108/1 3/109/1
f 6/86/5 21/110/5 26/111/5
f 40/112/4 36/113/4 26/114/4
f 24/67/4 37/115/4 27/116/4
f 48/117/3 6/118/3 59/119/3
f 47/120/2 16/121/2 46/122/2
f 1/1/1 53/123/1 41/2/1
f 3/4/1 48/124/1 53/5/1
f 18/7/1 52/125/1 59/8/1
f 5/10/1 55/126/1 43/11/1
f 41/13/2 55/127/2 5/14/2
f 9/16/2 42/128/2 54/17/2
f 45/19/2 50/129/2 13/20/2
f 7/22/2 54/130/2 45/23/2
f 43/25/2 42/131/2 9/26/2
f 10/28/1 51/132/1 58/29/1
f 12/31/1 47/133/1 51/32/1
f 16/34/1 14/134/1 57/35/1
f 15/37/1 44/135/1 50/38/1
f 58/40/3 44/136/3 15/41/3
f 17/43/3 20/137/3 60/44/3
f 56/46/3 52/138/3 18/47/3
f 17/49/3 49/139/3 56/50/3
f 57/52/3 60/140/3 20/53/3
f 1/55/1 2/141/1 23/56/1
f 21/142/4 22/59/4 26/58/4
f 22/59/4 23/143/4 24/60/4
f 16/61/5 35/104/5 29/62/5
f 19/64/6 18/87/6 36/65/6
f 24/67/4 32/144/4 35/68/4
f 29/145/4 35/146/4 30/72/4
f 35/146/4 32/70/4 30/72/4
f 17/73/6 19/64/6 40/66/6
f 8/75/7 13/85/7 33/76/7
f 10/78/8 12/147/8 29/79/8
f 5/81/9 24/93/9 23/82/9
f 15/84/10 32/89/10 33/76/10
f 6/86/11 26/111/11 36/65/11
f 15/84/9 11/148/9 31/88/9
f 9/90/7 37/106/7 25/91/7
f 5/81/11 4/92/11 25/91/11
f 20/94/6 38/103/6 34/95/6
f 10/97/8 30/149/8 31/98/8
f 7/100/7 8/75/7 28/77/7
f 17/102/6 39/150/6 38/103/6
f 16/61/10 14/96/10 34/95/10
f 7/105/7 27/151/7 37/106/7
f 1/107/1 22/152/1 21/108/1
f 6/86/5 3/153/5 21/110/5
f 26/114/4 35/154/4 39/155/4
f 35/154/4 34/156/4 38/157/4
f 38/157/4 39/155/4 35/154/4
f 39/155/4 40/112/4 26/114/4
f 33/158/4 32/144/4 28/159/4
f 32/144/4 24/67/4 27/116/4
f 28/159/4 32/144/4 27/116/4
f 24/67/4 25/160/4 37/115/4
f 48/117/3 3/161/3 6/118/3
f 47/120/2 12/162/2 16/121/2
