# Blender v2.82 (sub 7) OBJ File: 'houses.blend'
# www.blender.org
mtllib cityHall.mtl
o Plane_Plane.002
v -6.000000 0.000000 6.000000
v 6.000000 0.000000 6.000000
v -6.000000 0.000000 -6.000000
v 6.000000 0.000000 -6.000000
v -6.000000 9.000000 -6.000000
v -6.000000 9.000000 6.000000
v 6.000000 9.000000 6.000000
v 6.000000 9.000000 -6.000000
v -6.000000 12.000000 -0.230978
v -6.000000 12.000000 0.230978
v 6.000000 12.000000 0.230978
v 6.000000 12.000000 -0.230978
v -3.000000 9.000000 6.000000
v 0.000000 9.000000 6.000000
v 3.000000 9.000000 6.000000
v -3.000000 12.000000 0.230978
v 0.000000 12.000000 0.230978
v 3.000000 12.000000 0.230978
v 3.000000 9.000000 -6.000000
v 0.000000 9.000000 -6.000000
v -3.000000 9.000000 -6.000000
v 3.000000 12.000000 -0.230978
v 0.000000 12.000000 -0.230978
v -3.000000 12.000000 -0.230978
v 6.000000 10.500000 3.115489
v -6.000000 10.500000 3.115489
v -3.000000 10.500000 3.115489
v 0.000000 10.500000 3.115489
v 3.000000 10.500000 3.115489
v -6.000000 10.500000 -3.115489
v 6.000000 10.500000 -3.115489
v 3.000000 10.500000 -3.115489
v 0.000000 10.500000 -3.115489
v -3.000000 10.500000 -3.115489
vt 0.058703 0.981769
vt 0.426048 0.583663
vt 0.426048 0.981769
vt 0.012571 0.024154
vt 0.153407 0.446663
vt 0.294244 0.446663
vt 0.575916 0.024154
vt 0.435080 0.446663
vt 0.294244 0.446663
vt 0.575916 0.024154
vt 0.012571 0.446663
vt 0.012571 0.024154
vt 0.012571 0.024154
vt 0.575916 0.446663
vt 0.575916 0.024154
vt 0.188699 0.454219
vt 0.077594 0.437111
vt 0.188699 0.437111
vt -0.004337 0.980013
vt 0.363007 0.581907
vt 0.363007 0.980012
vt 0.375518 0.041368
vt 0.289368 0.079983
vt 0.215111 0.041368
vt 0.296569 0.077817
vt 0.284614 0.077817
vt 0.209964 0.038998
vt 0.035197 0.980012
vt 0.402542 0.581907
vt 0.402542 0.980013
vt 0.105352 0.980012
vt 0.472697 0.581907
vt 0.472697 0.980012
vt 0.113007 0.980012
vt 0.480352 0.581907
vt 0.480352 0.980012
vt 1.098238 0.981769
vt 1.465583 0.583663
vt 1.465582 0.981769
vt 0.105893 0.981769
vt 0.473238 0.583663
vt 0.473238 0.981769
vt 0.113548 0.981769
vt 0.480893 0.583663
vt 0.480893 0.981769
vt 0.113007 1.003118
vt 0.480352 0.605012
vt 0.480352 1.003118
vt 0.105352 1.003118
vt 0.472697 0.605012
vt 0.472697 1.003118
vt 0.097697 1.003118
vt 0.465042 0.605013
vt 0.465042 1.003118
vt -0.004337 1.003118
vt 0.363007 0.605012
vt 0.363007 1.003118
vt 0.051048 1.004875
vt 0.418393 0.606769
vt 0.418393 1.004875
vt 0.105893 1.004875
vt 0.473238 0.606769
vt 0.473238 1.004875
vt 0.035738 1.004875
vt 0.403082 0.606769
vt 0.403083 1.004875
vt 0.058703 1.004875
vt 0.426048 0.606769
vt 0.426048 1.004875
vt 0.058703 0.583663
vt 0.575916 0.446663
vt 0.435080 0.446663
vt 0.012571 0.446663
vt 0.012571 0.446663
vt 0.153407 0.446663
vt 0.575916 0.446663
vt 0.522014 0.437111
vt 0.522014 0.454219
vt 0.410909 0.454219
vt 0.299804 0.454219
vt 0.077594 0.454219
vt 0.410909 0.437111
vt 0.299804 0.437111
vt -0.004337 0.581907
vt 0.140854 0.002753
vt 0.449775 0.002753
vt 0.301261 0.079983
vt 0.135314 0.000179
vt 0.371219 0.038998
vt 0.445868 0.000179
vt 0.035197 0.581907
vt 0.105352 0.581907
vt 0.113007 0.581907
vt 1.098238 0.583663
vt 0.105893 0.583663
vt 0.113548 0.583663
vt 0.113007 0.605012
vt 0.105352 0.605012
vt 0.097697 0.605012
vt -0.004337 0.605013
vt 0.051048 0.606769
vt 0.105893 0.606769
vt 0.035738 0.606769
vt 0.058703 0.606769
vn 0.0000 0.8872 -0.4614
vn 0.0000 0.0000 -1.0000
vn 0.0000 0.0000 1.0000
vn 1.0000 0.0000 0.0000
vn -1.0000 0.0000 0.0000
vn 0.0000 1.0000 0.0000
vn 0.0000 0.8872 0.4614
usemtl Large_Building
s off
f 30/1/1 24/2/1 34/3/1
f 3/4/2 21/5/2 20/6/2
f 2/7/3 15/8/3 14/9/3
f 4/10/4 7/11/4 2/12/4
f 1/13/5 5/14/5 3/15/5
f 18/16/6 12/17/6 22/18/6
f 25/19/7 18/20/7 29/21/7
f 31/22/4 11/23/4 25/24/4
f 10/25/5 9/26/5 30/27/5
f 27/28/7 10/29/7 26/30/7
f 28/31/7 16/32/7 27/33/7
f 29/34/7 17/35/7 28/36/7
f 32/37/1 12/38/1 31/39/1
f 33/40/1 22/41/1 32/42/1
f 34/43/1 23/44/1 33/45/1
f 15/46/7 28/47/7 14/48/7
f 14/49/7 27/50/7 13/51/7
f 13/52/7 26/53/7 6/54/7
f 7/55/7 29/56/7 15/57/7
f 21/58/1 33/59/1 20/60/1
f 20/61/1 32/62/1 19/63/1
f 19/64/1 31/65/1 8/66/1
f 5/67/1 34/68/1 21/69/1
f 30/1/1 9/70/1 24/2/1
f 8/71/2 4/10/2 19/72/2
f 4/10/2 3/4/2 20/6/2
f 19/72/2 4/10/2 20/6/2
f 3/4/2 5/73/2 21/5/2
f 6/74/3 1/13/3 13/75/3
f 1/13/3 2/7/3 14/9/3
f 13/75/3 1/13/3 14/9/3
f 2/7/3 7/76/3 15/8/3
f 4/10/4 8/71/4 7/11/4
f 1/13/5 6/74/5 5/14/5
f 9/77/6 10/78/6 16/79/6
f 17/80/6 18/16/6 22/18/6
f 18/16/6 11/81/6 12/17/6
f 9/77/6 16/79/6 24/82/6
f 16/79/6 17/80/6 24/82/6
f 22/18/6 23/83/6 17/80/6
f 23/83/6 24/82/6 17/80/6
f 25/19/7 11/84/7 18/20/7
f 25/24/4 7/85/4 31/22/4
f 7/85/4 8/86/4 31/22/4
f 31/22/4 12/87/4 11/23/4
f 30/27/5 5/88/5 26/89/5
f 5/88/5 6/90/5 26/89/5
f 26/89/5 10/25/5 30/27/5
f 27/28/7 16/91/7 10/29/7
f 28/31/7 17/92/7 16/32/7
f 29/34/7 18/93/7 17/35/7
f 32/37/1 22/94/1 12/38/1
f 33/40/1 23/95/1 22/41/1
f 34/43/1 24/96/1 23/44/1
f 15/46/7 29/97/7 28/47/7
f 14/49/7 28/98/7 27/50/7
f 13/52/7 27/99/7 26/53/7
f 7/55/7 25/100/7 29/56/7
f 21/58/1 34/101/1 33/59/1
f 20/61/1 33/102/1 32/62/1
f 19/64/1 32/103/1 31/65/1
f 5/67/1 30/104/1 34/68/1
