# Blender v2.82 (sub 7) OBJ File: 'prefab.blend'
# www.blender.org
mtllib house.mtl
o Plane.057
v 4.000000 0.000000 2.000000
v 4.000000 9.123712 2.000000
v 4.000000 1.132847 -2.000000
v 4.000000 1.132847 2.000000
v -4.000000 1.132847 2.000000
v 4.000000 3.686704 -2.000000
v 4.000000 3.686704 2.000000
v -4.000000 4.053549 2.000000
v 4.000000 4.053549 -2.000000
v 4.000000 4.053549 2.000000
v 4.000000 2.409776 2.000000
v -4.000000 7.496848 2.000000
v 4.000000 7.496847 -2.000000
v 4.000000 7.496847 2.000000
v 4.000000 5.743603 2.000000
v 4.000000 0.000000 -0.666667
v 4.000000 0.000000 0.666667
v 4.000000 9.123712 0.666667
v 4.000000 9.123712 -0.666667
v 4.000000 1.132847 0.666667
v 4.000000 1.132847 -0.666667
v 4.000000 3.686704 0.666667
v 4.000000 3.686704 -0.666667
v 4.000000 4.053549 0.666667
v 4.000000 4.053549 -0.666667
v 4.000000 2.409776 0.666667
v 4.000000 2.409776 -0.666667
v 4.000000 5.743603 0.666667
v 4.000000 5.743603 -0.666667
v 4.000000 7.496847 0.666667
v 4.000000 7.496847 -0.666667
v -4.000000 0.000000 2.000000
v -4.000000 0.000000 -2.000000
v -4.000000 9.123712 2.000000
v -4.000000 3.686704 -2.000000
v -4.000000 3.686704 2.000000
v -4.000000 4.053549 -2.000000
v -4.000000 2.409776 -2.000000
v -4.000000 2.409776 2.000000
v -4.000000 5.743603 -2.000000
v -4.000000 5.743603 2.000000
v -4.000000 0.000000 -0.666667
v -4.000000 0.000000 0.666667
v -4.000000 9.123712 0.666667
v -4.000000 9.123712 -0.666667
v -4.000000 1.132847 0.666667
v -4.000000 1.132847 -0.666667
v -4.000000 3.686704 0.666667
v -4.000000 3.686704 -0.666667
v -4.000000 4.053549 0.666667
v -4.000000 4.053549 -0.666667
v -4.000000 2.409776 0.666667
v -4.000000 2.409776 -0.666667
v -4.000000 5.743603 0.666667
v -4.000000 5.743603 -0.666667
v -4.000000 7.496847 0.666667
v -4.000000 7.496847 -0.666667
v 4.000000 0.000000 -2.000000
v -4.000000 9.123712 -2.000000
v 4.000000 9.123712 -2.000000
v -4.000000 7.256745 -2.000000
v -4.000000 1.132847 -2.000000
v 4.000000 7.256745 -2.000000
v -4.000000 7.256745 2.000000
v -4.000000 7.256745 -0.666667
v -4.000000 7.256745 0.666667
v 4.000000 2.409776 -2.000000
v 4.000000 7.256745 -0.666667
v 4.000000 7.256745 0.666667
v -4.000000 7.496848 -2.000000
v 4.000000 7.256745 2.000000
v 4.000000 5.743603 -2.000000
v 4.000000 11.376088 0.266174
v 4.000000 11.376088 0.088725
v 4.000000 11.376088 -0.088725
v -4.000000 11.376088 0.088725
v -4.000000 11.376088 0.266174
v -4.000000 11.376088 -0.088725
v 4.000000 11.376088 -0.266174
v -4.000000 11.376088 -0.266174
v -2.000000 9.123712 2.000000
v 0.000000 9.123712 2.000000
v 2.000000 9.123712 2.000000
v -2.000000 11.376088 0.266174
v 0.000000 11.376088 0.266174
v 2.000000 11.376088 0.266174
v 2.000000 9.123712 -2.000000
v 0.000000 9.123712 -2.000000
v -2.000000 9.123712 -2.000000
v 2.000000 11.376088 -0.266174
v 0.000000 11.376088 -0.266174
v -2.000000 11.376088 -0.266174
vt 0.997342 0.413742
vt 0.776483 0.503568
vt 0.886912 0.503568
vt 0.912431 0.880384
vt 0.789998 0.880384
vt 0.789998 0.980727
vt 0.620337 0.571506
vt 0.620337 0.522304
vt 0.562427 0.522304
vt 0.997342 -0.000195
vt 0.555624 -0.000195
vt 0.555624 0.062355
vt 0.715312 0.882865
vt 0.619214 0.882865
vt 0.619214 0.983208
vt 0.997342 0.132860
vt 0.555624 0.132860
vt 0.555624 0.203366
vt 0.745607 0.226905
vt 0.745607 0.205290
vt 0.667046 0.205290
vt 0.997342 0.203366
vt 0.555624 0.223621
vt 0.997342 0.062355
vt 0.523116 0.882865
vt 0.523116 0.983208
vt 0.853375 0.833509
vt 0.726187 0.833509
vt 0.726187 0.933852
vt 0.705118 0.414490
vt 0.705118 0.401560
vt 0.633317 0.401560
vt 0.997342 0.223621
vt 0.555624 0.316937
vt 0.997342 0.400484
vt 0.555624 0.400484
vt 0.555624 0.413742
vt 0.848722 0.414490
vt 0.848722 0.401560
vt 0.776920 0.401560
vt 0.776920 0.414490
vt 0.853375 0.632824
vt 0.726187 0.632824
vt 0.726187 0.733167
vt 0.853375 0.733167
vt 0.619214 0.682180
vt 0.523116 0.682180
vt 0.523116 0.782522
vt 0.619214 0.782522
vt 0.902731 0.226905
vt 0.902731 0.205290
vt 0.824169 0.205290
vt 0.824169 0.226905
vt 0.715312 0.682180
vt 0.715312 0.782522
vt 0.736157 0.571506
vt 0.736157 0.522304
vt 0.678247 0.522304
vt 0.678247 0.571506
vt 0.912431 0.679699
vt 0.789998 0.679699
vt 0.789998 0.780042
vt 0.912431 0.780042
vt 0.929493 0.823744
vt 0.807060 0.924086
vt 0.807060 0.823744
vt 0.620337 0.571506
vt 0.562427 0.522304
vt 0.620337 0.522304
vt 0.907788 0.882865
vt 0.811690 0.983208
vt 0.811690 0.882865
vt 0.745607 0.226905
vt 0.667046 0.205290
vt 0.745607 0.205290
vt 0.715593 0.983208
vt 0.715593 0.882865
vt 0.855383 0.835462
vt 0.728194 0.935805
vt 0.728194 0.835462
vt 0.735398 0.415753
vt 0.663597 0.402824
vt 0.735398 0.402824
vt 0.879002 0.415754
vt 0.807200 0.402824
vt 0.879002 0.402824
vt 0.807200 0.415753
vt 0.855383 0.634777
vt 0.728194 0.735120
vt 0.728194 0.634777
vt 0.855383 0.735120
vt 0.811690 0.682180
vt 0.715593 0.782522
vt 0.715593 0.682180
vt 0.811690 0.782522
vt 0.902731 0.226905
vt 0.824169 0.205290
vt 0.902731 0.205290
vt 0.824169 0.226905
vt 0.907788 0.682180
vt 0.907788 0.782522
vt 0.736157 0.571506
vt 0.678247 0.522304
vt 0.736157 0.522304
vt 0.678247 0.571506
vt 0.929493 0.623058
vt 0.807060 0.723401
vt 0.807060 0.623058
vt 0.929493 0.723401
vt 0.997342 0.413742
vt 0.886912 0.503568
vt 0.776483 0.503568
vt 0.997342 -0.000195
vt 0.555624 0.062355
vt 0.555624 -0.000195
vt 0.997342 0.132860
vt 0.555624 0.203366
vt 0.555624 0.132860
vt 0.997342 0.203366
vt 0.555624 0.223621
vt 0.997342 0.062355
vt 0.997342 0.223621
vt 0.555624 0.316937
vt 0.997342 0.400484
vt 0.555624 0.413742
vt 0.555624 0.400484
vt 0.997342 0.316937
vt 0.969257 0.735120
vt 0.969257 0.835462
vt 0.855383 0.935805
vt 0.967250 0.733167
vt 0.967250 0.632824
vt 0.997342 0.316937
vt 0.967250 0.833509
vt 0.853375 0.933852
vt 0.807753 0.699296
vt 0.745228 0.942971
vt 0.764426 0.942971
vt 0.730883 0.510271
vt 0.730883 0.521508
vt 0.773098 0.510271
vt 0.807753 0.701270
vt 0.663506 0.701270
vt 0.726031 0.944944
vt 0.488776 0.054316
vt 0.193147 0.054316
vt 0.193146 0.474467
vt 0.324609 0.032915
vt 0.028979 0.032915
vt 0.028979 0.453067
vt 0.663506 0.699296
vt 0.519259 0.699296
vt 0.706834 0.942971
vt 0.745228 0.944944
vt 0.764425 0.944944
vt 0.519259 0.701270
vt 0.706834 0.944944
vt 0.726031 0.942971
vt 0.321142 0.035376
vt 0.025513 0.035377
vt 0.025513 0.455528
vt 0.336242 0.037837
vt 0.040613 0.037837
vt 0.040613 0.457989
vt 0.302126 0.032915
vt 0.006497 0.032916
vt 0.006497 0.453067
vt 0.310593 0.039551
vt 0.014964 0.039551
vt 0.014964 0.459702
vt 0.478262 0.037090
vt 0.182633 0.037090
vt 0.182633 0.457242
vt 0.296499 0.049394
vt 0.000870 0.049394
vt 0.000870 0.469545
vt 0.555624 0.503568
vt 0.666053 0.503568
vt 0.997342 0.503568
vt 0.912431 0.980727
vt 0.562427 0.571506
vt 0.715312 0.983208
vt 0.667046 0.226905
vt 0.633317 0.414490
vt 0.929493 0.924086
vt 0.562427 0.571506
vt 0.907788 0.983208
vt 0.667046 0.226905
vt 0.663597 0.415754
vt 0.555624 0.503568
vt 0.666053 0.503568
vt 0.997342 0.503568
vt 0.969257 0.634777
vt 0.969257 0.935805
vt 0.967250 0.933852
vt 0.952001 0.699296
vt 0.815313 0.517762
vt 0.773098 0.521508
vt 0.815313 0.521508
vt 0.688668 0.510271
vt 0.688668 0.521508
vt 0.646454 0.517762
vt 0.646454 0.521508
vt 0.815313 0.514017
vt 0.815313 0.510271
vt 0.646454 0.514017
vt 0.646454 0.510271
vt 0.488776 0.474467
vt 0.324609 0.453067
vt 0.952001 0.701270
vt 0.321142 0.455528
vt 0.336242 0.457989
vt 0.302126 0.453067
vt 0.310594 0.459702
vt 0.478262 0.457242
vt 0.296499 0.469545
vn 0.0000 0.0000 1.0000
vn 1.0000 0.0000 0.0000
vn -1.0000 0.0000 0.0000
vn 0.0000 0.0000 -1.0000
vn 0.0000 1.0000 0.0000
vn 0.0000 0.6100 -0.7924
vn 0.0000 0.6100 0.7924
usemtl SimpleHaus
s off
f 12/1/1 82/2/1 81/3/1
f 19/4/2 31/5/2 13/6/2
f 21/7/2 16/8/2 58/9/2
f 32/10/1 1/11/1 4/12/1
f 23/13/2 27/14/2 67/15/2
f 39/16/1 11/17/1 7/18/1
f 25/19/2 23/20/2 6/21/2
f 36/22/1 7/18/1 10/23/1
f 5/24/1 4/12/1 11/17/1
f 27/14/2 21/25/2 3/26/2
f 29/27/2 25/28/2 9/29/2
f 31/30/2 68/31/2 63/32/2
f 8/33/1 10/23/1 15/34/1
f 64/35/1 71/36/1 14/37/1
f 14/38/2 71/39/2 69/40/2
f 30/41/2 69/40/2 68/31/2
f 15/42/2 10/43/2 24/44/2
f 28/45/2 24/44/2 25/28/2
f 11/46/2 4/47/2 20/48/2
f 26/49/2 20/48/2 21/25/2
f 10/50/2 7/51/2 22/52/2
f 24/53/2 22/52/2 23/20/2
f 7/54/2 11/46/2 26/49/2
f 22/55/2 26/49/2 27/14/2
f 4/56/2 1/57/2 17/58/2
f 20/59/2 17/58/2 16/8/2
f 2/60/2 14/61/2 30/62/2
f 18/63/2 30/62/2 31/5/2
f 45/64/3 70/65/3 57/66/3
f 47/67/3 33/68/3 42/69/3
f 49/70/3 38/71/3 53/72/3
f 51/73/3 35/74/3 49/75/3
f 53/72/3 62/76/3 47/77/3
f 55/78/3 37/79/3 51/80/3
f 57/81/3 61/82/3 65/83/3
f 12/84/3 66/85/3 64/86/3
f 56/87/3 65/83/3 66/85/3
f 41/88/3 50/89/3 8/90/3
f 54/91/3 51/80/3 50/89/3
f 39/92/3 46/93/3 5/94/3
f 52/95/3 47/77/3 46/93/3
f 8/96/3 48/97/3 36/98/3
f 50/99/3 49/75/3 48/97/3
f 36/100/3 52/95/3 39/92/3
f 48/101/3 53/72/3 52/95/3
f 5/102/3 43/103/3 32/104/3
f 46/105/3 42/69/3 43/103/3
f 34/106/3 56/107/3 12/108/3
f 44/109/3 57/66/3 56/107/3
f 70/110/4 89/111/4 88/112/4
f 33/113/4 3/114/4 58/115/4
f 38/116/4 6/117/4 67/118/4
f 35/119/4 9/120/4 6/117/4
f 62/121/4 67/118/4 3/114/4
f 37/122/4 72/123/4 9/120/4
f 61/124/4 13/125/4 63/126/4
f 40/127/4 63/126/4 72/123/4
f 66/128/3 55/78/3 54/91/3
f 41/88/3 66/128/3 54/91/3
f 65/129/3 40/130/3 55/78/3
f 69/131/2 28/45/2 29/27/2
f 71/132/2 15/42/2 28/45/2
f 41/133/1 15/34/1 71/36/1
f 68/134/2 29/27/2 72/135/2
f 45/136/3 78/137/3 80/138/3
f 91/139/5 85/140/5 90/141/5
f 18/142/2 19/143/2 75/144/2
f 60/145/6 87/146/6 90/147/6
f 34/148/7 81/149/7 84/150/7
f 44/151/3 34/152/3 77/153/3
f 18/142/2 74/154/2 73/155/2
f 19/143/2 60/156/2 79/157/2
f 45/136/3 44/151/3 76/158/3
f 83/159/7 2/160/7 73/161/7
f 82/162/7 83/163/7 86/164/7
f 81/165/7 82/166/7 85/167/7
f 89/168/6 59/169/6 80/170/6
f 88/171/6 89/172/6 92/173/6
f 87/174/6 88/175/6 91/176/6
f 2/177/1 83/178/1 14/37/1
f 14/37/1 82/2/1 12/1/1
f 83/178/1 82/2/1 14/37/1
f 12/1/1 81/3/1 34/179/1
f 19/4/2 13/6/2 60/180/2
f 21/7/2 58/9/2 3/181/2
f 32/10/1 4/12/1 5/24/1
f 23/13/2 67/15/2 6/182/2
f 39/16/1 7/18/1 36/22/1
f 25/19/2 6/21/2 9/183/2
f 36/22/1 10/23/1 8/33/1
f 5/24/1 11/17/1 39/16/1
f 27/14/2 3/26/2 67/15/2
f 29/27/2 9/29/2 72/135/2
f 31/30/2 63/32/2 13/184/2
f 8/33/1 15/34/1 41/133/1
f 64/35/1 14/37/1 12/1/1
f 14/38/2 69/40/2 30/41/2
f 30/41/2 68/31/2 31/30/2
f 15/42/2 24/44/2 28/45/2
f 28/45/2 25/28/2 29/27/2
f 11/46/2 20/48/2 26/49/2
f 26/49/2 21/25/2 27/14/2
f 10/50/2 22/52/2 24/53/2
f 24/53/2 23/20/2 25/19/2
f 7/54/2 26/49/2 22/55/2
f 22/55/2 27/14/2 23/13/2
f 4/56/2 17/58/2 20/59/2
f 20/59/2 16/8/2 21/7/2
f 2/60/2 30/62/2 18/63/2
f 18/63/2 31/5/2 19/4/2
f 45/64/3 59/185/3 70/65/3
f 47/67/3 62/186/3 33/68/3
f 49/70/3 35/187/3 38/71/3
f 51/73/3 37/188/3 35/74/3
f 53/72/3 38/71/3 62/76/3
f 55/78/3 40/130/3 37/79/3
f 57/81/3 70/189/3 61/82/3
f 12/84/3 56/87/3 66/85/3
f 56/87/3 57/81/3 65/83/3
f 41/88/3 54/91/3 50/89/3
f 54/91/3 55/78/3 51/80/3
f 39/92/3 52/95/3 46/93/3
f 52/95/3 53/72/3 47/77/3
f 8/96/3 50/99/3 48/97/3
f 50/99/3 51/73/3 49/75/3
f 36/100/3 48/101/3 52/95/3
f 48/101/3 49/70/3 53/72/3
f 5/102/3 46/105/3 43/103/3
f 46/105/3 47/67/3 42/69/3
f 34/106/3 44/109/3 56/107/3
f 44/109/3 45/64/3 57/66/3
f 60/190/4 13/125/4 87/191/4
f 13/125/4 70/110/4 88/112/4
f 87/191/4 13/125/4 88/112/4
f 70/110/4 59/192/4 89/111/4
f 33/113/4 62/121/4 3/114/4
f 38/116/4 35/119/4 6/117/4
f 35/119/4 37/122/4 9/120/4
f 62/121/4 38/116/4 67/118/4
f 37/122/4 40/127/4 72/123/4
f 61/124/4 70/110/4 13/125/4
f 40/127/4 61/124/4 63/126/4
f 66/128/3 65/129/3 55/78/3
f 41/88/3 64/193/3 66/128/3
f 65/129/3 61/194/3 40/130/3
f 69/131/2 29/27/2 68/134/2
f 71/132/2 28/45/2 69/131/2
f 41/133/1 71/36/1 64/35/1
f 68/134/2 72/135/2 63/195/2
f 45/136/3 80/138/3 59/196/3
f 74/197/5 86/198/5 73/199/5
f 85/140/5 92/200/5 84/201/5
f 84/201/5 76/202/5 77/203/5
f 74/197/5 75/204/5 86/198/5
f 86/198/5 90/141/5 85/140/5
f 75/204/5 90/141/5 86/198/5
f 90/141/5 75/204/5 79/205/5
f 84/201/5 78/206/5 76/202/5
f 78/206/5 92/200/5 80/207/5
f 84/201/5 92/200/5 78/206/5
f 92/200/5 85/140/5 91/139/5
f 18/142/2 75/144/2 74/154/2
f 60/145/6 90/147/6 79/208/6
f 34/148/7 84/150/7 77/209/7
f 44/151/3 77/153/3 76/158/3
f 18/142/2 73/155/2 2/210/2
f 19/143/2 79/157/2 75/144/2
f 45/136/3 76/158/3 78/137/3
f 83/159/7 73/161/7 86/211/7
f 82/162/7 86/164/7 85/212/7
f 81/165/7 85/167/7 84/213/7
f 89/168/6 80/170/6 92/214/6
f 88/171/6 92/173/6 91/215/6
f 87/174/6 91/176/6 90/216/6
