# Blender v2.82 (sub 7) OBJ File: 'housesv2.blend'
# www.blender.org
mtllib cittyvill02.mtl
v 4.000000 0.000000 3.000000
v -4.000000 0.000000 3.000000
v 4.000001 7.499833 -0.000000
v 4.000000 0.000000 0.000000
v -3.999999 7.499832 3.000000
v 3.565397 0.911179 1.865390
v 2.155905 0.911179 1.865390
v 2.155904 3.614620 1.865390
v 3.565397 3.614619 1.865389
v 2.000000 7.499833 3.000000
v 2.000000 0.000000 3.000000
v -2.000000 0.000000 3.000000
v 2.000000 7.499833 3.999999
v 2.000000 0.000000 4.000000
v -2.000000 0.000000 4.000000
v 2.000000 4.093352 3.000000
v 4.000000 4.093351 3.000000
v 3.683743 0.000000 3.000000
v 3.683742 4.093351 3.000000
v 2.000000 4.093352 1.865390
v 3.683742 4.093351 1.865389
v 2.000000 0.911179 1.865390
v 3.683743 0.911179 1.865390
v 2.000000 0.702271 2.166317
v 2.000000 0.911179 2.166317
v 3.683743 0.702271 2.166317
v 3.683743 0.911179 2.166317
v 2.000000 0.476424 2.451554
v 2.000000 0.702271 2.451554
v 3.683743 0.476424 2.451554
v 3.683743 0.702271 2.451554
v 2.000000 0.267516 2.731636
v 2.000000 0.476424 2.731636
v 3.683743 0.267516 2.731636
v 3.683743 0.476424 2.731636
v 2.000000 -0.000000 3.012211
v 2.000000 0.267516 3.012211
v 3.683743 -0.000000 3.012211
v 3.683743 0.267516 3.012211
v -2.000000 7.499833 -3.000000
v 2.000000 0.000000 -3.000000
v -2.000000 0.000000 -3.000000
v 2.000000 7.499833 -3.999999
v -2.000000 7.499833 -4.000000
v 2.000000 0.000000 -4.000000
v -2.000000 0.000000 -4.000000
v 2.000000 4.093352 -3.000000
v 4.000000 0.000000 -3.000000
v 4.000001 7.499833 -3.000000
v 4.000000 0.000000 -1.500000
v 4.000001 7.499833 -1.500000
v -4.000001 7.499833 -0.000000
v -4.000000 0.000000 0.000000
v -4.000000 4.093351 3.000000
v -4.000000 0.000000 -3.000000
v -4.000001 7.499833 -3.000000
v -4.000000 0.000000 -1.500000
v -4.000001 7.499833 -1.500000
v -1.999998 7.499832 3.000000
v -2.000000 9.379200 2.353405
v -2.000002 7.499833 4.000000
v -0.000003 9.379201 3.353407
v -1.538008 9.379201 3.353407
v -0.000001 7.499833 4.000000
v 1.538006 9.379202 3.353407
v 4.000001 7.499833 3.000000
v 2.000000 9.379201 2.353406
v 3.538007 9.379201 2.353406
v 3.226443 9.876963 0.980349
v 2.000000 9.876963 0.980349
v -3.538005 9.379200 2.353406
v -2.000000 9.876962 0.980349
v -3.226441 9.876962 0.980349
v -0.000001 9.876964 1.980349
v -1.226442 9.876964 1.980349
v 1.226440 9.876963 1.980349
v 0.910625 9.358276 3.358092
v 1.089375 9.358276 3.358092
v 0.467871 9.015395 4.000000
v 1.532129 9.015395 4.000000
v 1.532129 7.499833 4.000000
v 0.467871 9.015395 3.478974
v 1.532129 9.015395 3.478974
v 0.467871 7.499833 4.000000
v 0.910625 9.358276 4.000000
v 1.089375 9.358276 4.000000
v -1.089375 9.358276 3.358092
v -0.910624 9.358276 3.358092
v -1.532129 9.015395 4.000000
v -0.467871 9.015395 4.000000
v -0.467871 7.499833 4.000000
v -1.532129 9.015395 3.478974
v -0.467871 9.015395 3.478974
v -1.532129 7.499833 4.000000
v -1.089375 9.358276 4.000000
v -0.910624 9.358276 4.000000
v -3.089375 9.358276 2.358092
v -2.910625 9.358276 2.358092
v -3.532129 9.015395 3.000000
v -2.467871 9.015395 3.000000
v -2.467871 7.499833 3.000000
v -3.532129 9.015395 2.478975
v -2.467871 9.015395 2.478975
v -3.532129 7.499833 3.000000
v -3.089375 9.358276 3.000000
v -2.910625 9.358276 3.000000
v 2.910625 9.358276 2.358092
v 3.089375 9.358276 2.358092
v 2.467871 9.015395 3.000000
v 3.532129 9.015395 3.000000
v 3.532129 7.499833 3.000000
v 2.467871 9.015395 2.478975
v 3.532129 9.015395 2.478975
v 2.467871 7.499833 3.000000
v 2.910625 9.358276 3.000000
v 3.089375 9.358276 3.000000
v 1.999998 7.499834 -3.000000
v -2.000002 9.379201 -2.353407
v -0.000005 9.379202 -3.353408
v -1.538010 9.379202 -3.353408
v -0.000003 7.499834 -4.000002
v 1.538004 9.379203 -3.353408
v 1.999998 9.379202 -2.353408
v 3.538005 9.379202 -2.353408
v 3.226441 9.876964 -0.980350
v 1.999998 9.876964 -0.980350
v -3.538007 9.379201 -2.353407
v -2.000002 9.876963 -0.980350
v -3.226443 9.876963 -0.980350
v -0.000003 9.876965 -1.980350
v -1.226444 9.876965 -1.980350
v 1.226439 9.876964 -1.980350
v 0.910623 9.358277 -3.358093
v 1.089374 9.358277 -3.358093
v 0.467869 9.015396 -4.000001
v 1.532127 9.015396 -4.000001
v 1.532127 7.499834 -4.000001
v 0.467869 9.015396 -3.478975
v 1.532127 9.015396 -3.478975
v 0.467869 7.499834 -4.000001
v 0.910623 9.358277 -4.000001
v 1.089374 9.358277 -4.000001
v -1.089377 9.358277 -3.358093
v -0.910626 9.358277 -3.358093
v -1.532131 9.015396 -4.000001
v -0.467873 9.015396 -4.000001
v -0.467873 7.499834 -4.000001
v -1.532131 9.015396 -3.478975
v -0.467873 9.015396 -3.478975
v -1.532131 7.499834 -4.000001
v -1.089377 9.358277 -4.000001
v -0.910626 9.358277 -4.000001
v -3.089377 9.358277 -2.358093
v -2.910626 9.358277 -2.358093
v -3.532131 9.015396 -3.000000
v -2.467873 9.015396 -3.000000
v -2.467873 7.499834 -3.000000
v -3.532131 9.015396 -2.478975
v -2.467873 9.015396 -2.478975
v -3.532131 7.499834 -3.000000
v -3.089377 9.358277 -3.000000
v -2.910626 9.358277 -3.000000
v 2.910623 9.358277 -2.358093
v 3.089374 9.358277 -2.358093
v 2.467869 9.015396 -3.000000
v 3.532127 9.015396 -3.000000
v 3.532127 7.499834 -3.000000
v 2.467869 9.015396 -2.478975
v 3.532127 9.015396 -2.478975
v 2.467869 7.499834 -3.000000
v 2.910623 9.358277 -3.000000
v 3.089374 9.358277 -3.000000
vt -1.744456 -0.531250
vt -1.744456 1.024259
vt -0.540734 1.024258
vt -1.744456 -0.531250
vt -1.744456 1.024259
vt -0.540734 1.024258
vt -0.177991 -3.229818
vt 1.025731 -1.674310
vt -0.177991 -1.674310
vt -0.177991 -3.229818
vt 1.025731 -1.674310
vt -0.177991 -1.674310
vt 0.675827 0.429151
vt 0.381700 1.835905
vt -0.099063 0.525021
vt -0.432255 1.376486
vt -0.005126 0.036035
vt 0.429222 1.359882
vt -0.333834 -0.558418
vt 0.458912 -0.461122
vt -0.031238 0.880247
vt 0.833685 0.967545
vt -0.129234 0.918506
vt 0.414855 -0.546990
vt 1.035144 1.142624
vt 0.086276 0.012674
vt 1.276193 0.012674
vt 1.044302 1.141110
vt 1.285350 0.011161
vt 0.095434 0.011161
vt 1.044302 1.141110
vt 1.285350 0.011161
vt 0.095434 0.011161
vt 1.035144 1.142624
vt 0.086276 0.012674
vt 1.276193 0.012674
vt -0.290383 0.661543
vt 0.644562 0.920706
vt 0.396231 1.679456
vt -0.148393 0.272235
vt -0.149133 -0.424037
vt 0.712442 -0.435851
vt 0.029455 0.466432
vt 0.962791 0.649159
vt 0.318424 -0.154243
vt 1.120640 0.082144
vt 0.937454 0.839400
vt 0.020653 0.049506
vt 0.096175 0.009943
vt 0.489372 0.432552
vt 0.004950 0.432552
vt 0.165474 0.793341
vt 0.328847 0.206659
vt 0.328847 0.793341
vt 0.398147 0.567448
vt 0.004950 0.990058
vt 0.004950 0.567448
vt 0.096175 0.009943
vt 0.489372 0.432552
vt 0.004950 0.432552
vt 0.165474 0.793341
vt 0.328847 0.206659
vt 0.328847 0.793341
vt 0.398147 0.567448
vt 0.004950 0.990058
vt 0.004950 0.567448
vt 0.096175 0.009943
vt 0.489372 0.432552
vt 0.004950 0.432552
vt 0.165474 0.793341
vt 0.328847 0.206659
vt 0.328847 0.793341
vt 0.398147 0.567448
vt 0.004950 0.990058
vt 0.004950 0.567448
vt 0.096175 0.009943
vt 0.489372 0.432552
vt 0.004950 0.432552
vt 0.165474 0.793341
vt 0.328847 0.206659
vt 0.328847 0.793341
vt 0.398147 0.567448
vt 0.004950 0.990058
vt 0.004950 0.567448
vt -1.744456 -0.531250
vt -0.540734 1.024258
vt -1.744456 1.024259
vt -1.744456 -0.531250
vt -0.540734 1.024258
vt -1.744456 1.024259
vt -0.177991 -3.229818
vt -0.177991 -1.674310
vt 1.025731 -1.674310
vt -0.177991 -3.229818
vt -0.177991 -1.674310
vt 1.025731 -1.674310
vt 0.675827 0.429151
vt -0.099063 0.525021
vt 0.381700 1.835905
vt -0.432255 1.376486
vt 0.429222 1.359882
vt -0.005126 0.036035
vt -0.333834 -0.558418
vt -0.031238 0.880247
vt 0.458912 -0.461122
vt 0.833685 0.967545
vt 0.414855 -0.546990
vt -0.129234 0.918506
vt 1.035144 1.142624
vt 1.276193 0.012674
vt 0.086276 0.012674
vt 1.044302 1.141110
vt 0.095434 0.011161
vt 1.285350 0.011161
vt 1.044302 1.141110
vt 0.095434 0.011161
vt 1.285350 0.011161
vt 1.035144 1.142624
vt 1.276193 0.012674
vt 0.086276 0.012674
vt -0.290383 0.661543
vt 0.396231 1.679456
vt 0.644562 0.920706
vt -0.148393 0.272235
vt 0.712442 -0.435851
vt -0.149133 -0.424037
vt 0.029455 0.466432
vt 0.318424 -0.154243
vt 0.962791 0.649159
vt 1.120640 0.082144
vt 0.020653 0.049506
vt 0.937454 0.839400
vt 0.096175 0.009943
vt 0.004950 0.432552
vt 0.489372 0.432552
vt 0.165474 0.793341
vt 0.328847 0.793341
vt 0.328847 0.206659
vt 0.398147 0.567448
vt 0.004950 0.567448
vt 0.004950 0.990058
vt 0.096175 0.009943
vt 0.004950 0.432552
vt 0.489372 0.432552
vt 0.165474 0.793341
vt 0.328847 0.793341
vt 0.328847 0.206659
vt 0.398147 0.567448
vt 0.004950 0.567448
vt 0.004950 0.990058
vt 0.096175 0.009943
vt 0.004950 0.432552
vt 0.489372 0.432552
vt 0.165474 0.793341
vt 0.328847 0.793341
vt 0.328847 0.206659
vt 0.398147 0.567448
vt 0.004950 0.567448
vt 0.004950 0.990058
vt 0.096175 0.009943
vt 0.004950 0.432552
vt 0.489372 0.432552
vt 0.165474 0.793341
vt 0.328847 0.793341
vt 0.328847 0.206659
vt 0.398147 0.567448
vt 0.004950 0.567448
vt 0.004950 0.990058
vt 0.269101 1.116218
vt -1.010164 0.500248
vt 1.501038 0.500248
vt 0.269102 0.499750
vt 1.501040 -0.116218
vt -1.010164 -0.116218
vt -1.521273 -0.386065
vt 2.021572 -0.386066
vt 0.250150 0.499646
vt 0.221775 -0.116218
vt -1.010163 0.499752
vt 1.501040 0.499751
vt 0.221773 0.500249
vt 1.501040 1.116218
vt -1.010164 1.116218
vt 2.021572 1.386065
vt 0.250151 0.500354
vt -1.521273 1.386066
vt 3.071607 1.290734
vt 1.968438 -0.290734
vt 3.071610 -0.290734
vt -2.732685 -0.290733
vt -1.629514 -0.290734
vt -1.629516 1.290733
vt 1.968436 1.290734
vt -1.969120 -0.326058
vt -1.499088 0.949362
vt 0.233264 -0.319593
vt 1.965617 0.949362
vt 2.435649 -0.326059
vt 1.334457 -0.322826
vt 0.952970 1.326059
vt -0.486441 1.326059
vt -1.749443 -0.243664
vt 0.233265 -0.237844
vt -1.326295 0.904539
vt 1.792825 0.904540
vt 1.224618 -0.240754
vt 2.215971 -0.243664
vt -0.414655 1.243663
vt 0.881184 1.243664
vt -0.179154 -0.531249
vt -0.179154 -0.531249
vt 1.387312 -3.229818
vt 1.387312 -3.229818
vt 0.086276 1.142624
vt 0.095434 1.141110
vt 0.095434 1.141110
vt 0.086276 1.142624
vt 0.489372 0.009943
vt 0.165475 0.206659
vt 0.489372 0.990058
vt 0.489372 0.009943
vt 0.165475 0.206659
vt 0.489372 0.990058
vt 0.489372 0.009943
vt 0.165475 0.206659
vt 0.489372 0.990058
vt 0.489372 0.009943
vt 0.165475 0.206659
vt 0.489372 0.990058
vt -0.179154 -0.531249
vt -0.179154 -0.531249
vt 1.387312 -3.229818
vt 1.387312 -3.229818
vt 0.086276 1.142624
vt 0.095434 1.141110
vt 0.095434 1.141110
vt 0.086276 1.142624
vt 0.489372 0.009943
vt 0.165475 0.206659
vt 0.489372 0.990058
vt 0.489372 0.009943
vt 0.165475 0.206659
vt 0.489372 0.990058
vt 0.489372 0.009943
vt 0.165475 0.206659
vt 0.489372 0.990058
vt 0.489372 0.009943
vt 0.165475 0.206659
vt 0.489372 0.990058
vt -2.732686 1.290733
vt 0.703162 0.564740
vt 0.632630 0.654980
vt 0.633874 0.564991
vt 0.971892 0.486690
vt 0.907279 0.517023
vt 0.861249 0.486690
vt 0.701154 0.654068
vt 0.633498 0.564685
vt 0.701876 0.565240
vt 0.958074 0.458687
vt 0.866204 0.286829
vt 0.958074 0.286829
vt 0.703162 0.564740
vt 0.632630 0.654980
vt 0.633874 0.564991
vt 0.971892 0.486690
vt 0.907279 0.517023
vt 0.861249 0.486690
vt 0.701154 0.654068
vt 0.633498 0.564685
vt 0.701876 0.565240
vt 0.958074 0.458687
vt 0.866204 0.286829
vt 0.958074 0.286829
vt 0.703162 0.564740
vt 0.632630 0.654980
vt 0.633874 0.564991
vt 0.971892 0.486690
vt 0.907279 0.517023
vt 0.861249 0.486690
vt 0.701154 0.654068
vt 0.633498 0.564685
vt 0.701876 0.565240
vt 0.958074 0.458687
vt 0.866204 0.286829
vt 0.958074 0.286829
vt 0.703162 0.564740
vt 0.632630 0.654980
vt 0.633874 0.564991
vt 0.971892 0.486690
vt 0.907279 0.517023
vt 0.861249 0.486690
vt 0.701154 0.654068
vt 0.633498 0.564685
vt 0.701876 0.565240
vt 0.958074 0.458687
vt 0.866204 0.286829
vt 0.958074 0.286829
vt 0.703162 0.564740
vt 0.633874 0.564991
vt 0.632630 0.654980
vt 0.971892 0.486690
vt 0.861249 0.486690
vt 0.907279 0.517023
vt 0.701154 0.654068
vt 0.701876 0.565240
vt 0.633498 0.564685
vt 0.958074 0.458687
vt 0.958074 0.286829
vt 0.866204 0.286829
vt 0.703162 0.564740
vt 0.633874 0.564991
vt 0.632630 0.654980
vt 0.971892 0.486690
vt 0.861249 0.486690
vt 0.907279 0.517023
vt 0.701154 0.654068
vt 0.701876 0.565240
vt 0.633498 0.564685
vt 0.958074 0.458687
vt 0.958074 0.286829
vt 0.866204 0.286829
vt 0.703162 0.564740
vt 0.633874 0.564991
vt 0.632630 0.654980
vt 0.971892 0.486690
vt 0.861249 0.486690
vt 0.907279 0.517023
vt 0.701154 0.654068
vt 0.701876 0.565240
vt 0.633498 0.564685
vt 0.958074 0.458687
vt 0.958074 0.286829
vt 0.866204 0.286829
vt 0.703162 0.564740
vt 0.633874 0.564991
vt 0.632630 0.654980
vt 0.971892 0.486690
vt 0.861249 0.486690
vt 0.907279 0.517023
vt 0.701154 0.654068
vt 0.701876 0.565240
vt 0.633498 0.564685
vt 0.958074 0.458687
vt 0.958074 0.286829
vt 0.866204 0.286829
vt 0.925862 0.517023
vt 0.866204 0.458688
vt 0.925862 0.517023
vt 0.866204 0.458688
vt 0.925862 0.517023
vt 0.866204 0.458688
vt 0.925862 0.517023
vt 0.866204 0.458688
vt 0.925862 0.517023
vt 0.866204 0.458688
vt 0.925862 0.517023
vt 0.866204 0.458688
vt 0.925862 0.517023
vt 0.866204 0.458688
vt 0.925862 0.517023
vt 0.866204 0.458688
vt 0.957408 0.987137
vt 0.491939 0.011046
vt 0.957408 0.011046
vt 0.034648 0.750069
vt 0.923755 0.750069
vt 0.923754 0.011046
vt 0.491939 0.987137
vt 0.034648 0.011046
vt 0.014745 0.992829
vt 0.485542 0.005203
vt 0.485542 0.992829
vt 0.835421 0.994469
vt 0.139195 0.994469
vt 0.139195 0.539683
vt 0.540455 0.993976
vt 0.540455 0.536818
vt 0.918646 0.536818
vt 0.987982 -0.000791
vt 0.749873 -0.000791
vt 0.749872 0.542741
vt -0.002020 -0.000791
vt 0.236089 0.992827
vt 0.236090 -0.000791
vt 0.915925 0.406997
vt 0.915926 0.089551
vt 0.915926 -0.001345
vt 0.990372 -0.001345
vt 0.990372 0.406997
vt 0.519575 0.406997
vt 0.915925 0.406997
vt 0.519575 0.406997
vt 0.519575 0.089551
vt 0.556275 0.359240
vt 0.888067 0.359240
vt 0.593305 0.263529
vt 0.370311 0.287033
vt 0.370311 0.263529
vt 0.915926 0.068711
vt 0.519575 0.089551
vt 0.519575 0.068711
vt 0.390959 0.311830
vt 0.370311 0.287033
vt 0.593305 0.287033
vt 0.593305 0.217329
vt 0.370311 0.240408
vt 0.370311 0.217329
vt 0.915926 0.046181
vt 0.519575 0.068711
vt 0.519575 0.046181
vt 0.915926 0.025341
vt 0.519575 0.046181
vt 0.519575 0.025341
vt 0.915926 0.025341
vt 0.519575 -0.001345
vt 0.915926 -0.001345
vt 0.593305 0.240408
vt 0.370311 0.263529
vt 0.370311 0.240409
vt 0.009793 0.753367
vt 0.480590 0.753367
vt 0.480590 0.005203
vt 0.987982 -0.000791
vt 0.749872 0.412254
vt 0.749873 -0.000791
vt -0.002020 -0.000791
vt 0.236090 -0.000791
vt 0.236089 0.755991
vt 0.009793 0.753367
vt 0.480590 0.005203
vt 0.480590 0.753367
vt 0.476336 0.012615
vt 0.824449 0.994469
vt 0.476336 0.994469
vt 0.128223 0.012615
vt 0.128223 0.994469
vt 0.835421 0.750218
vt 0.139195 0.415193
vt 0.139195 0.750218
vt 0.476336 0.012615
vt 0.476336 0.750218
vt 0.824449 0.750218
vt 0.128223 0.012615
vt 0.128223 0.750218
vt 0.014746 0.005203
vt 0.139194 0.011899
vt 0.835421 0.012615
vt 0.993093 0.536818
vt 0.993093 0.993976
vt 0.749872 0.992827
vt 0.987982 0.992827
vt -0.002020 0.992827
vt 0.749873 -0.008487
vt 0.556275 0.089551
vt 0.888067 0.089551
vt 0.593305 0.287033
vt 0.915926 0.089551
vt 0.593305 0.311830
vt 0.577632 0.311830
vt 0.370311 0.311830
vt 0.593305 0.240408
vt 0.915926 0.068711
vt 0.915926 0.046181
vt 0.519575 0.025341
vt 0.593305 0.263529
vt 0.009793 0.005203
vt 0.987982 0.755990
vt 0.749872 0.755991
vt -0.002020 0.755991
vt 0.009793 0.005203
vt 0.824449 0.012615
vt 0.835421 0.012615
vt 0.139194 0.012615
vt 0.824449 0.012615
vt 0.970123 0.398695
vt 0.773857 0.055320
vt 0.968453 0.055320
vt 0.778310 0.398695
vn 0.0000 0.3253 0.9456
vn -0.9711 0.2387 -0.0000
vn -0.8985 0.1428 0.4151
vn 0.9711 0.2387 0.0000
vn 0.8985 0.1428 0.4151
vn 0.0000 0.9401 0.3408
vn 0.4553 0.8652 0.2103
vn -0.4553 0.8652 0.2103
vn -0.4032 0.8603 0.3119
vn 0.4032 0.8603 0.3119
vn -0.6123 0.7906 0.0000
vn 0.0000 1.0000 0.0000
vn 0.6123 0.7906 0.0000
vn 0.0000 0.3253 -0.9456
vn -0.8985 0.1428 -0.4151
vn 0.8985 0.1428 -0.4151
vn 0.0000 0.9401 -0.3408
vn 0.4553 0.8652 -0.2103
vn -0.4553 0.8652 -0.2103
vn -0.4032 0.8603 -0.3119
vn 0.4032 0.8603 -0.3119
vn -0.9358 0.3411 0.0887
vn -0.9358 0.3411 -0.0887
vn -0.9509 0.3094 0.0000
vn 0.9358 0.3411 -0.0887
vn 0.9358 0.3411 0.0887
vn 0.9509 0.3094 -0.0000
vn -1.0000 0.0000 0.0000
vn 0.0000 0.0000 1.0000
vn 1.0000 0.0000 0.0000
vn 0.0000 0.0000 -1.0000
vn -0.0000 -1.0000 0.0000
usemtl Roof03
s off
f 59/1/1 60/2/1 71/3/1
f 64/4/1 62/5/1 63/6/1
f 64/7/1 65/8/1 62/9/1
f 10/10/1 68/11/1 67/12/1
f 61/13/2 63/14/2 59/15/2
f 60/16/3 59/17/3 63/18/3
f 13/19/4 10/20/4 65/21/4
f 67/22/5 65/23/5 10/24/5
f 69/25/6 67/26/6 68/27/6
f 73/28/6 71/29/6 60/30/6
f 75/31/6 63/32/6 62/33/6
f 76/34/6 62/35/6 65/36/6
f 65/37/7 67/38/7 76/39/7
f 75/40/8 60/41/8 63/42/8
f 75/43/9 72/44/9 60/45/9
f 76/46/10 67/47/10 70/48/10
f 82/49/11 85/50/11 77/51/11
f 77/52/12 86/53/12 78/54/12
f 83/55/13 86/56/13 80/57/13
f 92/58/11 95/59/11 87/60/11
f 87/61/12 96/62/12 88/63/12
f 93/64/13 96/65/13 90/66/13
f 102/67/11 105/68/11 97/69/11
f 97/70/12 106/71/12 98/72/12
f 103/73/13 106/74/13 100/75/13
f 112/76/11 115/77/11 107/78/11
f 107/79/12 116/80/12 108/81/12
f 113/82/13 116/83/13 110/84/13
f 40/85/14 127/86/14 118/87/14
f 121/88/14 120/89/14 119/90/14
f 121/91/14 119/92/14 122/93/14
f 117/94/14 123/95/14 124/96/14
f 44/97/2 40/98/2 120/99/2
f 118/100/15 120/101/15 40/102/15
f 43/103/4 122/104/4 117/105/4
f 123/106/16 117/107/16 122/108/16
f 125/109/17 124/110/17 123/111/17
f 129/112/17 118/113/17 127/114/17
f 131/115/17 119/116/17 120/117/17
f 132/118/17 122/119/17 119/120/17
f 122/121/18 132/122/18 123/123/18
f 131/124/19 120/125/19 118/126/19
f 131/127/20 118/128/20 128/129/20
f 132/130/21 126/131/21 123/132/21
f 138/133/11 133/134/11 141/135/11
f 133/136/12 134/137/12 142/138/12
f 139/139/13 136/140/13 142/141/13
f 148/142/11 143/143/11 151/144/11
f 143/145/12 144/146/12 152/147/12
f 149/148/13 146/149/13 152/150/13
f 158/151/11 153/152/11 161/153/11
f 153/154/12 154/155/12 162/156/12
f 159/157/13 156/158/13 162/159/13
f 168/160/11 163/161/11 171/162/11
f 163/163/12 164/164/12 172/165/12
f 169/166/13 166/167/13 172/168/13
f 131/169/12 128/170/12 130/171/12
f 132/172/12 130/173/12 126/174/12
f 128/175/12 126/176/12 130/177/12
f 75/178/12 74/179/12 72/180/12
f 76/181/12 70/182/12 74/183/12
f 72/184/12 74/185/12 70/186/12
f 125/187/12 70/188/12 69/189/12
f 73/190/12 72/191/12 128/192/12
f 126/193/12 72/191/12 70/188/12
f 5/194/2 71/195/2 52/196/2
f 127/197/2 56/198/2 58/199/2
f 127/197/22 52/196/22 129/200/22
f 71/195/23 73/201/23 52/196/23
f 52/196/24 73/201/24 129/200/24
f 66/202/4 3/203/4 68/204/4
f 124/205/4 51/206/4 49/207/4
f 68/204/25 3/203/25 69/208/25
f 124/205/26 125/209/26 3/203/26
f 125/209/27 69/208/27 3/203/27
f 59/1/1 71/3/1 5/210/1
f 64/4/1 63/6/1 61/211/1
f 64/7/1 13/212/1 65/8/1
f 10/10/1 66/213/1 68/11/1
f 69/25/6 70/214/6 67/26/6
f 73/28/6 60/30/6 72/215/6
f 75/31/6 62/33/6 74/216/6
f 76/34/6 74/217/6 62/35/6
f 82/49/11 79/218/11 85/50/11
f 77/52/12 85/219/12 86/53/12
f 83/55/13 78/220/13 86/56/13
f 92/58/11 89/221/11 95/59/11
f 87/61/12 95/222/12 96/62/12
f 93/64/13 88/223/13 96/65/13
f 102/67/11 99/224/11 105/68/11
f 97/70/12 105/225/12 106/71/12
f 103/73/13 98/226/13 106/74/13
f 112/76/11 109/227/11 115/77/11
f 107/79/12 115/228/12 116/80/12
f 113/82/13 108/229/13 116/83/13
f 40/85/14 56/230/14 127/86/14
f 121/88/14 44/231/14 120/89/14
f 121/91/14 122/93/14 43/232/14
f 117/94/14 124/96/14 49/233/14
f 125/109/17 123/111/17 126/234/17
f 129/112/17 128/235/17 118/113/17
f 131/115/17 130/236/17 119/116/17
f 132/118/17 119/120/17 130/237/17
f 138/133/11 141/135/11 135/238/11
f 133/136/12 142/138/12 141/239/12
f 139/139/13 142/141/13 134/240/13
f 148/142/11 151/144/11 145/241/11
f 143/145/12 152/147/12 151/242/12
f 149/148/13 152/150/13 144/243/13
f 158/151/11 161/153/11 155/244/11
f 153/154/12 162/156/12 161/245/12
f 159/157/13 162/159/13 154/246/13
f 168/160/11 171/162/11 165/247/11
f 163/163/12 172/165/12 171/248/12
f 169/166/13 172/168/13 164/249/13
f 125/187/12 126/193/12 70/188/12
f 73/190/12 128/192/12 129/250/12
f 126/193/12 128/192/12 72/191/12
f 127/197/2 58/199/2 52/196/2
f 124/205/4 3/203/4 51/206/4
usemtl Fassade01
f 82/251/28 84/252/28 79/253/28
f 80/254/29 85/255/29 79/256/29
f 81/257/30 83/258/30 80/259/30
f 80/260/29 84/261/29 81/262/29
f 92/263/28 94/264/28 89/265/28
f 90/266/29 95/267/29 89/268/29
f 91/269/30 93/270/30 90/271/30
f 90/272/29 94/273/29 91/274/29
f 102/275/28 104/276/28 99/277/28
f 100/278/29 105/279/29 99/280/29
f 101/281/30 103/282/30 100/283/30
f 100/284/29 104/285/29 101/286/29
f 112/287/28 114/288/28 109/289/28
f 110/290/29 115/291/29 109/292/29
f 111/293/30 113/294/30 110/295/30
f 110/296/29 114/297/29 111/298/29
f 138/299/28 135/300/28 140/301/28
f 136/302/31 135/303/31 141/304/31
f 137/305/30 136/306/30 139/307/30
f 136/308/31 137/309/31 140/310/31
f 148/311/28 145/312/28 150/313/28
f 146/314/31 145/315/31 151/316/31
f 147/317/30 146/318/30 149/319/30
f 146/320/31 147/321/31 150/322/31
f 158/323/28 155/324/28 160/325/28
f 156/326/31 155/327/31 161/328/31
f 157/329/30 156/330/30 159/331/30
f 156/332/31 157/333/31 160/334/31
f 168/335/28 165/336/28 170/337/28
f 166/338/31 165/339/31 171/340/31
f 167/341/30 166/342/30 169/343/30
f 166/344/31 167/345/31 170/346/31
f 80/254/29 86/347/29 85/255/29
f 80/260/29 79/348/29 84/261/29
f 90/266/29 96/349/29 95/267/29
f 90/272/29 89/350/29 94/273/29
f 100/278/29 106/351/29 105/279/29
f 100/284/29 99/352/29 104/285/29
f 110/290/29 116/353/29 115/291/29
f 110/296/29 109/354/29 114/297/29
f 136/302/31 141/304/31 142/355/31
f 136/308/31 140/310/31 135/356/31
f 146/314/31 151/316/31 152/357/31
f 146/320/31 150/322/31 145/358/31
f 156/326/31 161/328/31 162/359/31
f 156/332/31 160/334/31 155/360/31
f 166/338/31 171/340/31 172/361/31
f 166/344/31 170/346/31 165/362/31
usemtl Fassade02
f 13/363/29 15/364/29 14/365/29
f 44/366/31 43/367/31 45/368/31
f 13/363/29 61/369/29 15/364/29
f 44/366/31 45/368/31 46/370/31
usemtl Fassade02_windowless
f 5/371/29 12/372/29 59/373/29
f 3/374/30 66/375/30 17/376/30
f 10/377/29 16/378/29 19/379/29
f 14/380/30 11/381/30 16/382/30
f 15/383/28 59/384/28 12/385/28
f 19/386/28 23/387/28 18/388/28
f 19/386/29 1/389/29 17/390/29
f 19/386/32 20/391/32 21/392/32
f 16/393/30 22/394/30 20/391/30
f 8/395/29 9/396/29 21/392/29
f 24/397/12 31/398/12 26/399/12
f 26/400/29 25/401/29 24/402/29
f 7/403/12 25/404/12 27/405/12
f 28/406/12 35/407/12 30/408/12
f 30/409/29 29/410/29 28/411/29
f 34/412/29 33/413/29 32/414/29
f 39/415/29 36/416/29 38/417/29
f 32/418/12 39/419/12 34/420/12
f 56/421/31 40/422/31 42/423/31
f 45/424/30 47/425/30 41/426/30
f 46/427/28 42/428/28 40/429/28
f 49/430/31 41/431/31 117/432/31
f 50/433/30 49/434/30 51/435/30
f 4/436/30 51/435/30 3/437/30
f 52/438/28 54/439/28 5/440/28
f 57/441/28 58/442/28 56/443/28
f 53/444/28 52/445/28 58/442/28
f 5/371/29 2/446/29 12/372/29
f 17/376/30 1/447/30 4/448/30
f 4/448/30 3/374/30 17/376/30
f 17/449/29 66/450/29 19/379/29
f 66/450/29 10/377/29 19/379/29
f 16/382/30 10/451/30 13/452/30
f 13/452/30 14/380/30 16/382/30
f 15/383/28 61/453/28 59/384/28
f 19/386/28 21/392/28 23/387/28
f 19/386/29 18/388/29 1/389/29
f 19/386/32 16/393/32 20/391/32
f 16/393/30 11/454/30 22/394/30
f 20/391/29 22/394/29 8/395/29
f 22/394/29 7/455/29 8/395/29
f 6/456/29 23/387/29 9/396/29
f 23/387/29 21/392/29 9/396/29
f 20/391/29 8/395/29 21/392/29
f 24/397/12 29/457/12 31/398/12
f 26/400/29 27/458/29 25/401/29
f 27/405/12 23/459/12 6/460/12
f 7/403/12 22/461/12 25/404/12
f 27/405/12 6/460/12 7/403/12
f 28/406/12 33/462/12 35/407/12
f 30/409/29 31/463/29 29/410/29
f 34/412/29 35/464/29 33/413/29
f 39/415/29 37/465/29 36/416/29
f 32/418/12 37/466/12 39/419/12
f 56/421/31 42/423/31 55/467/31
f 47/425/30 43/468/30 117/469/30
f 43/468/30 47/425/30 45/424/30
f 46/427/28 40/429/28 44/470/28
f 49/430/31 48/471/31 41/431/31
f 50/433/30 48/472/30 49/434/30
f 4/436/30 50/433/30 51/435/30
f 54/439/28 53/473/28 2/474/28
f 53/473/28 54/439/28 52/438/28
f 57/441/28 56/443/28 55/475/28
f 53/444/28 58/442/28 57/441/28
usemtl Doors
f 9/476/29 7/477/29 6/478/29
f 9/476/29 8/479/29 7/477/29
