# Blender v2.82 (sub 7) OBJ File: 'housesv2.blend'
# www.blender.org
mtllib citybuilding3.mtl
v 4.000000 0.000000 2.000000
v -2.000000 7.963483 2.000000
v 4.000000 0.000000 -2.000000
v 4.000001 7.963483 -0.705968
v 2.000000 7.963483 2.000000
v 2.467871 7.963483 2.000000
v 3.532130 9.479045 1.478975
v 2.467871 9.479045 1.478975
v 3.532130 7.963483 2.000000
v 3.532130 9.479045 2.000000
v 2.467871 9.479045 2.000000
v 3.089376 9.821926 1.358093
v 2.910625 9.821926 1.358093
v 3.089376 9.821926 2.000000
v 2.910625 9.821926 2.000000
v 2.000000 10.340612 -0.019651
v 4.000001 7.963483 0.666666
v 4.000001 7.963483 -1.999999
v -0.000001 10.340612 -0.019651
v -0.000001 9.842851 -1.353406
v -2.000002 10.340612 -0.019651
v -0.000001 9.842851 1.353406
v -0.000001 7.963483 1.999999
v -4.000001 10.340612 -0.019651
v 0.467870 7.963483 2.000000
v 1.532130 9.479045 1.478975
v 0.467870 9.479045 1.478975
v 1.532130 7.963483 2.000000
v 1.532130 9.479045 2.000000
v 0.467870 9.479045 2.000000
v 1.089376 9.821926 1.358093
v 0.910625 9.821926 1.358093
v 1.089376 9.821926 2.000000
v 0.910625 9.821926 2.000000
v -1.532130 7.963483 2.000000
v -0.467870 9.479045 1.478975
v -1.532130 9.479045 1.478975
v -0.467870 7.963483 2.000000
v -0.467870 9.479045 2.000000
v -1.532130 9.479045 2.000000
v -0.910624 9.821926 1.358093
v -1.089375 9.821926 1.358093
v -0.910624 9.821926 2.000000
v -1.089375 9.821926 2.000000
v -3.532130 7.963483 2.000000
v -2.467870 9.479045 1.478975
v -3.532130 9.479045 1.478975
v -2.467870 7.963483 2.000000
v -2.467870 9.479045 2.000000
v -3.532130 9.479045 2.000000
v -2.910624 9.821926 1.358093
v -3.089375 9.821926 1.358093
v -2.910624 9.821926 2.000000
v -3.089375 9.821926 2.000000
v 2.000000 7.963483 -2.000000
v -4.000001 9.842851 -1.353406
v -0.000001 7.963483 -1.999999
v -2.000000 7.963483 -2.000000
v -2.000002 9.842851 -1.353406
v 4.000000 0.000000 -0.705967
v 4.000000 0.000000 0.666667
v 1.860964 0.000000 2.000000
v 3.764719 0.000000 2.000000
v 3.764719 3.911308 2.000000
v 1.860964 3.911307 2.000000
v 1.860964 0.000000 1.287278
v 3.764719 0.000000 1.287278
v 3.764719 3.911308 1.287278
v 1.860964 3.911307 1.287278
v 1.860964 1.060812 1.287278
v 3.764719 1.060817 1.287278
v 1.860964 0.795609 1.287278
v 1.860964 0.530406 1.287278
v 1.860964 0.265203 1.287278
v 3.764719 0.265204 1.287278
v 3.764719 0.530408 1.287278
v 3.764719 0.795613 1.287278
v 1.860964 0.795609 1.508390
v 1.860964 0.530406 1.508390
v 3.764719 0.530408 1.508390
v 3.764719 0.795613 1.508390
v 1.860964 0.265203 1.688270
v 1.860964 0.530406 1.688270
v 3.764719 0.265204 1.688270
v 3.764719 0.530408 1.688270
v 1.860964 0.000000 1.933518
v 3.764719 0.000000 1.933518
v 1.860964 0.265203 1.933518
v 3.764719 0.265204 1.933518
v 1.860964 3.911307 0.893268
v 1.860964 1.060812 0.893269
v 3.764719 1.060817 0.893269
v 3.764719 3.911308 0.893268
v 1.860964 3.721162 0.893268
v 3.567422 1.060816 0.893269
v 2.036619 1.060812 0.893269
v 3.567422 3.721162 0.893268
v 2.036619 3.721162 0.893268
v 4.000000 10.340612 -0.019651
v 1.999999 9.842851 -1.353406
v 1.999999 9.842851 1.353406
v -4.000001 9.842851 1.353406
v -2.000001 9.842851 1.353406
v 3.999999 9.842851 -1.353406
v 3.999999 9.842851 1.353406
v 3.999999 7.963483 1.999999
v 3.528832 7.963483 2.000000
v -4.000000 0.000000 2.000000
v -3.999992 7.963483 2.000000
v 3.467567 7.963483 1.999999
v 3.435654 0.000000 -2.000000
v -3.467575 3.911308 -2.000000
v 3.435646 7.963483 -2.000000
v -3.467578 0.000000 -2.000000
v -3.467577 7.963483 -2.000000
v -4.000003 0.000000 -2.000000
v -4.000004 7.963483 -0.705968
v -4.000004 7.963483 0.666666
v -4.000004 7.963483 -1.999999
v -4.000003 0.000000 -0.705967
v -4.000003 0.000000 0.666667
v -3.363121 0.000000 2.000000
v -3.363121 7.963483 2.000000
v -1.999985 0.000000 2.000000
v 0.000007 0.000000 2.000000
v 1.860992 7.963483 2.000000
v -0.015960 0.000000 -2.000000
v -0.015961 7.963483 -1.999999
v -1.354019 7.963483 2.000000
v -1.354019 0.000000 2.000000
v 3.722488 3.911308 2.000000
v 1.860954 5.560149 2.000000
v 3.722481 5.560149 1.999999
v 3.764709 5.552854 1.999999
vt -0.165645 0.602282
vt 1.420121 2.178127
vt 1.420121 0.602282
vt 0.398147 0.567448
vt 0.004950 0.990058
vt 0.004950 0.567448
vt 0.165474 0.793341
vt 0.328847 0.206659
vt 0.328847 0.793341
vt 0.096175 0.009943
vt 0.489372 0.432552
vt 0.004950 0.432552
vt 1.420121 3.336131
vt -0.165646 2.178127
vt 1.420121 2.178127
vt -0.165645 -0.555722
vt 1.420121 0.602282
vt -0.165646 0.602282
vt 0.997965 0.602282
vt 1.420121 2.178127
vt -0.165646 2.178127
vt 1.309904 0.602282
vt 1.420121 2.178127
vt -0.165646 2.178127
vt -0.165645 3.336131
vt -0.165645 -0.555722
vt 1.420121 0.602282
vt -0.165646 0.602282
vt 1.420121 2.178127
vt 1.420121 0.602282
vt 1.407467 0.602282
vt 0.346542 0.602282
vt 1.420121 2.178127
vt -0.165646 2.178127
vt 1.420121 3.336131
vt -0.165645 -0.555722
vt 1.420121 0.602282
vt -0.165646 0.602282
vt -0.165645 0.602282
vt 1.420121 2.178127
vt 1.420121 0.602282
vt 0.644299 0.602282
vt -0.165645 -0.555722
vt 1.420121 0.602282
vt -0.165646 0.602282
vt -0.165645 3.336131
vt -0.165646 2.178127
vt 1.420121 0.602282
vt -0.165645 0.602282
vt 0.301207 1.327995
vt -0.633316 0.989212
vt 1.235730 0.989212
vt -1.073396 -0.327995
vt -0.165911 -0.327995
vt 1.675810 -0.327995
vt 0.768324 -0.327995
vt 0.301207 1.327995
vt 1.235730 0.989212
vt -0.633316 0.989212
vt -1.073396 -0.327995
vt -0.165911 -0.327995
vt 1.675810 -0.327995
vt 0.768324 -0.327995
vt 0.398147 0.567448
vt 0.004950 0.990058
vt 0.004950 0.567448
vt 0.165474 0.793341
vt 0.328847 0.206659
vt 0.328847 0.793341
vt 0.096175 0.009943
vt 0.489372 0.432552
vt 0.004950 0.432552
vt 0.398147 0.567448
vt 0.004950 0.990058
vt 0.004950 0.567448
vt 0.165474 0.793341
vt 0.328847 0.206659
vt 0.328847 0.793341
vt 0.096175 0.009943
vt 0.489372 0.432552
vt 0.004950 0.432552
vt 0.398147 0.567448
vt 0.004950 0.990058
vt 0.004950 0.567448
vt 0.165474 0.793341
vt 0.328847 0.206659
vt 0.328847 0.793341
vt 0.096175 0.009943
vt 0.489372 0.432552
vt 0.004950 0.432552
vt -0.165646 2.178127
vt 0.489372 0.990058
vt 0.165475 0.206659
vt 0.489372 0.009943
vt -0.165645 3.336131
vt 1.420121 -0.555722
vt -0.165645 0.602282
vt 1.420121 0.602282
vt -0.165645 0.602282
vt 1.420121 0.602282
vt 1.420121 3.336131
vt 1.420121 -0.555722
vt -0.165645 0.602282
vt -0.165646 2.178127
vt -0.165645 0.602282
vt 1.420121 0.602282
vt -0.165645 3.336131
vt 1.420121 -0.555722
vt -0.165646 2.178127
vt 0.281822 0.602282
vt 1.420121 0.602282
vt 1.420121 -0.555722
vt 1.420121 3.336131
vt 1.420121 2.178127
vt 0.489372 0.990058
vt 0.165475 0.206659
vt 0.489372 0.009943
vt 0.489372 0.990058
vt 0.165475 0.206659
vt 0.489372 0.009943
vt 0.489372 0.990058
vt 0.165475 0.206659
vt 0.489372 0.009943
vt 0.703162 0.564740
vt 0.632630 0.654980
vt 0.633874 0.564991
vt 0.701154 0.654068
vt 0.633498 0.564685
vt 0.701876 0.565240
vt 0.703162 0.564740
vt 0.632630 0.654980
vt 0.633874 0.564991
vt 0.701154 0.654068
vt 0.633498 0.564685
vt 0.701876 0.565240
vt 0.703162 0.564740
vt 0.632630 0.654980
vt 0.633874 0.564991
vt 0.701154 0.654068
vt 0.633498 0.564685
vt 0.701876 0.565240
vt 0.703162 0.564740
vt 0.632630 0.654980
vt 0.633874 0.564991
vt 0.701154 0.654068
vt 0.633498 0.564685
vt 0.701876 0.565240
vt 0.505980 0.196641
vt 0.505980 0.218859
vt 0.505980 0.241077
vt 0.346995 0.263295
vt 0.346995 0.241077
vt 0.346995 0.196641
vt 0.505980 0.285512
vt 0.505980 0.285512
vt 0.505980 0.508386
vt 0.346995 0.524315
vt 0.346995 0.285512
vt 0.346995 0.285512
vt 0.505980 0.524315
vt 0.505980 0.524315
vt 0.505980 0.196641
vt 0.505980 0.263294
vt 0.346995 0.196641
vt 0.346995 0.218859
vt 0.346995 0.524315
vt 0.505980 0.524315
vt 0.346995 0.524315
vt 0.376565 0.680482
vt 0.623435 0.696431
vt 0.376565 0.696431
vt 0.623436 0.680482
vt 0.376565 0.700086
vt 0.376565 0.680482
vt 0.375763 0.680135
vt 0.624236 0.656469
vt 0.624236 0.680135
vt 0.375763 0.680135
vt 0.624236 0.656469
vt 0.624236 0.680135
vt 0.623435 0.680481
vt 0.376565 0.702226
vt 0.376565 0.680482
vt 0.375764 0.680135
vt 0.624236 0.656469
vt 0.624236 0.680135
vt 0.375763 0.680135
vt 0.624237 0.656469
vt 0.624237 0.680135
vt 0.491311 0.285512
vt 0.376565 0.715416
vt 0.376565 0.680482
vt 0.402149 0.680482
vt 0.363472 0.508386
vt 0.623435 0.680482
vt 0.623435 0.700087
vt 0.375763 0.656469
vt 0.375763 0.656469
vt 0.623436 0.702226
vt 0.375763 0.656469
vt 0.375763 0.656469
vt 0.491311 0.508386
vt 0.623436 0.680482
vt 0.623435 0.715416
vt 0.600657 0.680482
vt 0.363472 0.285512
vt 0.769631 0.442300
vt 0.988426 0.876651
vt 0.988425 0.442300
vt 0.769631 0.876651
vt 0.297502 0.860264
vt 0.297502 0.688406
vt 0.475912 0.688406
vt 0.476762 0.860264
vt 0.372330 0.890597
vt 0.297933 0.860264
vt 0.476466 0.860264
vt 0.297502 0.688406
vt 0.476466 0.688406
vt 0.476762 0.860264
vt 0.372330 0.890597
vt 0.297933 0.860264
vt 0.476466 0.860264
vt 0.297502 0.688406
vt 0.476466 0.688406
vt 0.476762 0.860264
vt 0.372330 0.890597
vt 0.297933 0.860264
vt 0.476466 0.860264
vt 0.297502 0.688406
vt 0.476466 0.688406
vt 0.476762 0.860264
vt 0.372330 0.890597
vt 0.297933 0.860264
vt 0.914884 -0.006135
vt 0.273701 -0.006135
vt 0.273701 0.482987
vt 1.580360 0.693297
vt 1.925628 0.693298
vt 1.878349 0.992007
vt 0.544566 0.989725
vt 0.277876 0.989725
vt 0.277874 -0.006134
vt 0.506560 0.992007
vt 0.255422 0.002225
vt 0.506561 0.002225
vt 0.637179 0.002225
vt 0.890008 0.002225
vt 0.890005 0.992007
vt 0.476466 0.688406
vt 0.476466 0.860264
vt 0.402365 0.890597
vt 0.297502 0.860264
vt 0.402365 0.890597
vt 0.297502 0.860264
vt 0.402365 0.890597
vt 0.297502 0.860264
vt 0.402365 0.890597
vt 0.273701 0.989725
vt 0.546322 0.989725
vt 0.914884 0.989725
vt 1.933463 0.002233
vt 1.977102 0.002233
vt 1.933463 0.488362
vt 1.977102 0.992007
vt 1.606150 0.992007
vt 1.580367 0.992007
vt 1.933461 0.692392
vt 1.235197 0.992007
vt 1.235199 0.002225
vt 1.580362 0.488362
vt 1.580362 0.002225
vt 0.919057 -0.006135
vt 0.919057 0.989725
vt 0.916093 0.989725
vt 0.255422 0.992007
vt 1.009819 0.002225
vt 1.009819 0.992007
vt 0.637179 0.992007
vt 0.519055 0.992007
vt 0.519054 0.002225
vt 0.230089 0.005280
vt 0.451058 0.005280
vt 0.451061 0.994732
vt 0.476362 0.989725
vt 0.371526 -0.006134
vt 0.476360 -0.006134
vt 0.371526 0.989725
vt 0.272620 -0.006134
vt 0.371525 -0.006134
vt 0.223763 0.994733
vt 0.015447 0.994733
vt 0.223763 0.005276
vt 1.355881 0.693297
vt 1.355883 0.488362
vt 1.701151 0.488362
vt 0.659374 0.005280
vt 0.659376 0.994731
vt 0.230092 0.994732
vt 0.015450 0.994732
vt 0.015447 0.005281
vt 0.371526 0.989725
vt 0.272620 0.989725
vt 0.015447 0.005276
vt 0.444734 0.005276
vt 0.659377 0.005276
vt 0.444734 0.994733
vt 0.659377 0.994733
vt 1.708984 0.488362
vt 1.708982 0.692392
vt 1.701149 0.693298
vn 0.0000 0.3253 -0.9456
vn 0.6123 0.7906 0.0000
vn 0.0000 1.0000 0.0000
vn -0.6123 0.7906 0.0000
vn 0.0000 0.9401 0.3408
vn 0.0000 0.9369 -0.3496
vn 0.0000 0.3253 0.9456
vn 1.0000 -0.0000 0.0000
vn -1.0000 0.0000 0.0000
vn 0.0000 0.0000 1.0000
vn 0.0000 -0.0000 -1.0000
usemtl Roof01
s off
f 55/1/1 104/2/1 18/3/1
f 7/4/2 14/5/2 10/6/2
f 13/7/3 14/8/3 12/9/3
f 8/10/4 15/11/4 13/12/4
f 21/13/5 102/14/5 103/15/5
f 59/16/6 24/17/6 21/18/6
f 110/19/7 105/20/7 101/21/7
f 126/22/7 101/23/7 22/24/7
f 101/23/5 19/25/5 22/24/5
f 100/26/6 19/27/6 16/28/6
f 20/29/1 57/30/1 128/31/1
f 129/32/7 22/33/7 103/34/7
f 19/35/5 103/34/5 22/33/5
f 20/36/6 21/37/6 19/38/6
f 57/39/1 100/40/1 55/41/1
f 123/42/7 103/15/7 102/14/7
f 104/43/6 16/44/6 99/45/6
f 105/20/5 16/46/5 101/21/5
f 56/47/1 58/48/1 119/49/1
f 99/50/8 105/51/8 104/52/8
f 106/53/8 17/54/8 105/51/8
f 18/55/8 104/52/8 4/56/8
f 104/52/8 105/51/8 4/56/8
f 4/56/8 105/51/8 17/54/8
f 24/57/9 56/58/9 102/59/9
f 109/60/9 102/59/9 118/61/9
f 119/62/9 117/63/9 56/58/9
f 56/58/9 117/63/9 102/59/9
f 117/63/9 118/61/9 102/59/9
f 26/64/2 33/65/2 29/66/2
f 32/67/3 33/68/3 31/69/3
f 27/70/4 34/71/4 32/72/4
f 36/73/2 43/74/2 39/75/2
f 42/76/3 43/77/3 41/78/3
f 37/79/4 44/80/4 42/81/4
f 46/82/2 53/83/2 49/84/2
f 52/85/3 53/86/3 51/87/3
f 47/88/4 54/89/4 52/90/4
f 55/1/1 100/91/1 104/2/1
f 7/4/2 12/92/2 14/5/2
f 13/7/3 15/93/3 14/8/3
f 8/10/4 11/94/4 15/11/4
f 21/13/5 24/95/5 102/14/5
f 59/16/6 56/96/6 24/17/6
f 101/21/7 5/97/7 110/19/7
f 110/19/7 106/98/7 105/20/7
f 22/24/7 23/99/7 126/22/7
f 126/22/7 5/100/7 101/23/7
f 101/23/5 16/101/5 19/25/5
f 100/26/6 20/102/6 19/27/6
f 128/31/1 58/103/1 59/104/1
f 59/104/1 20/29/1 128/31/1
f 103/34/7 2/105/7 129/32/7
f 129/32/7 23/106/7 22/33/7
f 19/35/5 21/107/5 103/34/5
f 20/36/6 59/108/6 21/37/6
f 57/39/1 20/109/1 100/40/1
f 102/14/7 109/110/7 123/42/7
f 123/42/7 2/111/7 103/15/7
f 104/43/6 100/112/6 16/44/6
f 105/20/5 99/113/5 16/46/5
f 56/47/1 59/114/1 58/48/1
f 26/64/2 31/115/2 33/65/2
f 32/67/3 34/116/3 33/68/3
f 27/70/4 30/117/4 34/71/4
f 36/73/2 41/118/2 43/74/2
f 42/76/3 44/119/3 43/77/3
f 37/79/4 40/120/4 44/80/4
f 46/82/2 51/121/2 53/83/2
f 52/85/3 54/122/3 53/86/3
f 47/88/4 50/123/4 54/89/4
usemtl Fassade01
f 8/124/9 6/125/9 11/126/9
f 9/127/8 7/128/8 10/129/8
f 27/130/9 25/131/9 30/132/9
f 28/133/8 26/134/8 29/135/8
f 37/136/9 35/137/9 40/138/9
f 38/139/8 36/140/8 39/141/8
f 47/142/9 45/143/9 50/144/9
f 48/145/8 46/146/8 49/147/8
f 62/148/8 74/149/8 73/150/8
f 77/151/9 76/152/9 63/153/9
f 70/154/8 91/155/8 94/156/8
f 68/157/9 92/158/9 71/159/9
f 69/160/8 65/161/8 70/154/8
f 65/161/8 62/148/8 70/154/8
f 62/148/8 66/162/8 74/149/8
f 73/150/8 72/163/8 62/148/8
f 72/163/8 70/154/8 62/148/8
f 67/164/9 63/153/9 75/165/9
f 63/153/9 64/166/9 71/159/9
f 75/165/9 63/153/9 76/152/9
f 64/166/9 68/157/9 71/159/9
f 71/159/9 77/151/9 63/153/9
f 90/167/8 69/160/8 94/156/8
f 69/160/8 70/154/8 94/156/8
f 68/157/9 93/168/9 92/158/9
usemtl Fassade01_windowless
f 80/169/3 83/170/3 85/171/3
f 72/172/3 81/173/3 77/174/3
f 77/175/10 70/176/10 72/177/10
f 80/178/10 78/179/10 79/180/10
f 82/181/3 89/182/3 84/183/3
f 84/184/10 83/185/10 82/186/10
f 87/187/10 88/188/10 86/189/10
f 96/190/10 94/156/10 91/155/10
f 71/191/3 92/192/3 95/193/3
f 97/194/10 93/168/10 90/167/10
f 80/169/3 79/195/3 83/170/3
f 72/172/3 78/196/3 81/173/3
f 77/175/10 71/197/10 70/176/10
f 80/178/10 81/198/10 78/179/10
f 82/181/3 88/199/3 89/182/3
f 84/184/10 85/200/10 83/185/10
f 87/187/10 89/201/10 88/188/10
f 96/190/10 98/202/10 94/156/10
f 91/203/3 70/204/3 96/205/3
f 70/204/3 71/191/3 95/193/3
f 96/205/3 70/204/3 95/193/3
f 90/167/10 94/156/10 98/202/10
f 97/194/10 95/206/10 92/158/10
f 90/167/10 98/202/10 97/194/10
f 97/194/10 92/158/10 93/168/10
usemtl Doors
f 95/207/10 98/208/10 96/209/10
f 95/207/10 97/210/10 98/208/10
usemtl Fassade08
f 11/211/10 6/212/10 107/213/10
f 10/214/10 15/215/10 11/216/10
f 29/217/10 25/218/10 28/219/10
f 29/220/10 34/221/10 30/222/10
f 39/223/10 35/224/10 38/225/10
f 39/226/10 44/227/10 40/228/10
f 49/229/10 45/230/10 48/231/10
f 49/232/10 54/233/10 50/234/10
f 127/235/11 114/236/11 112/237/11
f 132/238/10 133/239/10 110/240/10
f 55/241/11 113/242/11 111/243/11
f 23/244/10 130/245/10 125/246/10
f 122/247/10 124/248/10 2/249/10
f 107/213/10 9/250/10 10/251/10
f 10/251/10 11/211/10 107/213/10
f 10/214/10 14/252/10 15/215/10
f 29/217/10 30/253/10 25/218/10
f 29/220/10 33/254/10 34/221/10
f 39/223/10 40/255/10 35/224/10
f 39/226/10 43/256/10 44/227/10
f 49/229/10 50/257/10 45/230/10
f 49/232/10 53/258/10 54/233/10
f 112/237/11 115/259/11 58/260/11
f 58/260/11 128/261/11 112/237/11
f 128/261/11 127/235/11 112/237/11
f 63/262/10 1/263/10 64/264/10
f 1/263/10 106/265/10 64/264/10
f 110/240/10 5/266/10 132/238/10
f 5/266/10 126/267/10 132/238/10
f 134/268/10 64/264/10 106/265/10
f 126/267/10 23/269/10 132/238/10
f 134/268/10 106/265/10 133/239/10
f 106/265/10 110/240/10 133/239/10
f 23/269/10 125/270/10 65/271/10
f 125/270/10 62/272/10 65/271/10
f 23/269/10 65/271/10 132/238/10
f 111/243/11 127/273/11 55/241/11
f 127/273/11 128/274/11 57/275/11
f 57/275/11 55/241/11 127/273/11
f 23/244/10 129/276/10 130/245/10
f 124/248/10 130/277/10 129/278/10
f 2/249/10 123/279/10 122/247/10
f 123/279/10 109/280/10 122/247/10
f 124/248/10 129/278/10 2/249/10
f 109/280/10 108/281/10 122/247/10
usemtl Fassade08_windowless
f 61/282/8 60/283/8 4/284/8
f 113/285/11 3/286/11 111/287/11
f 119/288/11 114/289/11 116/290/11
f 117/291/9 119/292/9 120/293/9
f 132/294/10 65/295/10 131/296/10
f 60/283/8 3/297/8 18/298/8
f 4/284/8 17/299/8 61/282/8
f 17/299/8 106/300/8 1/301/8
f 60/283/8 18/298/8 4/284/8
f 1/301/8 61/282/8 17/299/8
f 113/285/11 18/302/11 3/286/11
f 119/288/11 115/303/11 114/289/11
f 119/292/9 116/304/9 120/293/9
f 120/293/9 121/305/9 117/291/9
f 121/305/9 108/306/9 118/307/9
f 117/291/9 121/305/9 118/307/9
f 108/306/9 109/308/9 118/307/9
f 131/296/10 64/309/10 134/310/10
f 134/310/10 133/311/10 131/296/10
f 133/311/10 132/294/10 131/296/10
