# Blender v2.82 (sub 7) OBJ File: 'housesv2.blend'
# www.blender.org
mtllib citybuilding4.mtl
v 4.000000 0.000000 2.000000
v -2.000000 8.681617 2.000000
v 4.000000 0.000000 -2.000000
v 4.000001 8.681617 -0.705968
v 2.000000 8.681617 2.000000
v 2.467871 8.681617 2.000000
v 3.532130 10.197179 1.478975
v 2.467871 10.197179 1.478975
v 3.532130 8.681617 2.000000
v 3.532130 10.197179 2.000000
v 2.467871 10.197179 2.000000
v 3.089376 10.540060 1.358093
v 2.910625 10.540060 1.358093
v 3.089376 10.540060 2.000000
v 2.910625 10.540060 2.000000
v 2.000000 11.058746 -0.019651
v 4.000001 8.681617 0.666666
v 4.000001 8.681617 -1.999999
v -0.000001 11.058746 -0.019651
v -0.000001 10.560985 -1.353406
v -2.000002 11.058746 -0.019651
v -0.000001 10.560985 1.353406
v -0.000001 8.681617 1.999999
v -4.000001 11.058746 -0.019651
v 0.467870 8.681617 2.000000
v 1.532130 10.197179 1.478975
v 0.467870 10.197179 1.478975
v 1.532130 8.681617 2.000000
v 1.532130 10.197179 2.000000
v 0.467870 10.197179 2.000000
v 1.089376 10.540060 1.358093
v 0.910625 10.540060 1.358093
v 1.089376 10.540060 2.000000
v 0.910625 10.540060 2.000000
v -1.532130 8.681617 2.000000
v -0.467870 10.197179 1.478975
v -1.532130 10.197179 1.478975
v -0.467870 8.681617 2.000000
v -0.467870 10.197179 2.000000
v -1.532130 10.197179 2.000000
v -0.910624 10.540060 1.358093
v -1.089375 10.540060 1.358093
v -0.910624 10.540060 2.000000
v -1.089375 10.540060 2.000000
v -3.532130 8.681617 2.000000
v -2.467870 10.197179 1.478975
v -3.532130 10.197179 1.478975
v -2.467870 8.681617 2.000000
v -2.467870 10.197179 2.000000
v -3.532130 10.197179 2.000000
v -2.910624 10.540060 1.358093
v -3.089375 10.540060 1.358093
v -2.910624 10.540060 2.000000
v -3.089375 10.540060 2.000000
v 2.000000 8.681617 -2.000000
v -4.000001 10.560985 -1.353406
v -0.000001 8.681617 -1.999999
v -2.000000 8.681617 -2.000000
v -2.000002 10.560985 -1.353406
v 4.000000 0.000000 -0.705967
v 4.000000 0.000000 0.666667
v 1.860964 0.000000 2.000000
v 3.764719 0.000000 2.000000
v 3.764719 3.911308 2.000000
v 1.860964 3.911307 2.000000
v 1.860964 -0.000000 1.287278
v 3.764719 -0.000000 1.287278
v 3.764719 3.911308 1.287278
v 1.860964 3.911307 1.287278
v 1.860964 1.060812 1.287278
v 3.764719 1.060817 1.287278
v 1.860964 0.795609 1.287278
v 1.860964 0.530406 1.287278
v 1.860964 0.265203 1.287278
v 3.764719 0.265204 1.287278
v 3.764719 0.530408 1.287278
v 3.764719 0.795613 1.287278
v 1.860964 0.795609 1.508390
v 1.860964 0.530406 1.508390
v 3.764719 0.530408 1.508390
v 3.764719 0.795613 1.508390
v 1.860964 0.265203 1.688270
v 1.860964 0.530406 1.688270
v 3.764719 0.265204 1.688270
v 3.764719 0.530408 1.688270
v 1.860964 0.000000 1.933518
v 3.764719 0.000000 1.933518
v 1.860964 0.265203 1.933518
v 3.764719 0.265204 1.933518
v 1.860964 3.911307 0.893268
v 1.860964 1.060812 0.893269
v 3.764719 1.060817 0.893269
v 3.764719 3.911308 0.893268
v 1.860964 3.721162 0.893268
v 3.567422 1.060816 0.893269
v 2.036619 1.060812 0.893269
v 3.567422 3.721162 0.893268
v 2.036619 3.721162 0.893268
v 4.000000 11.058746 -0.019651
v 1.999999 10.560985 -1.353406
v 1.999999 10.560985 1.353406
v -4.000001 10.560985 1.353406
v -2.000001 10.560985 1.353406
v 3.999999 10.560985 -1.353406
v 3.999999 10.560985 1.353406
v 3.999999 8.681617 1.999999
v 3.528832 8.681617 2.000000
v -4.000000 0.000000 2.000000
v 3.467575 3.911308 2.000000
v -3.999992 8.681617 2.000000
v 3.467567 8.681617 1.999999
v 3.435654 0.000000 -2.000000
v -3.467575 3.911308 -2.000000
v 3.435646 8.681617 -2.000000
v -3.467578 0.000000 -2.000000
v -3.467577 8.681617 -2.000000
v -4.000003 0.000000 -2.000000
v -4.000004 8.681617 -0.705968
v -4.000004 8.681617 0.666666
v -4.000004 8.681617 -1.999999
v -4.000003 0.000000 -0.705967
v -4.000003 0.000000 0.666667
v 3.467571 6.695939 2.000000
v 1.860977 6.695941 2.000000
v 1.860968 4.850148 2.000000
v 3.467574 4.850148 2.000000
v -3.363121 0.000000 2.000000
v -3.363121 8.681617 2.000000
v -1.999985 0.000000 2.000000
v 0.000007 0.000000 2.000000
v 1.860992 8.681617 2.000000
v 3.467570 7.130812 2.000000
v 1.860980 7.130812 2.000000
v -0.015960 0.000000 -2.000000
v -0.015961 8.681617 -1.999999
vt -0.165645 0.602282
vt -0.165646 2.178127
vt 1.420121 2.178127
vt 0.398147 0.567448
vt 0.004950 0.990058
vt 0.004950 0.567448
vt 0.165474 0.793341
vt 0.328847 0.206659
vt 0.328847 0.793341
vt 0.096175 0.009943
vt 0.489372 0.432552
vt 0.004950 0.432552
vt 1.420121 3.336131
vt -0.165646 2.178127
vt 1.420121 2.178127
vt -0.165645 -0.555722
vt 1.420121 0.602282
vt -0.165646 0.602282
vt 0.997965 0.602282
vt 1.420121 2.178127
vt -0.165646 2.178127
vt 1.309904 0.602282
vt 1.420121 2.178127
vt -0.165646 2.178127
vt -0.165645 3.336131
vt -0.165645 -0.555722
vt 1.420121 0.602282
vt -0.165646 0.602282
vt 1.407467 0.602282
vt -0.165646 2.178127
vt 1.420121 2.178127
vt -0.165645 0.602282
vt 1.420121 2.178127
vt -0.165646 2.178127
vt 1.420121 3.336131
vt -0.165645 -0.555722
vt 1.420121 0.602282
vt -0.165646 0.602282
vt 1.420121 0.602282
vt -0.165645 0.602282
vt -0.165646 2.178127
vt 0.644299 0.602282
vt -0.165645 -0.555722
vt 1.420121 0.602282
vt -0.165646 0.602282
vt -0.165645 3.336131
vt 1.420121 0.602282
vt -0.165645 0.602282
vt -0.165646 2.178127
vt 0.301207 1.327995
vt -0.633316 0.989212
vt 1.235730 0.989212
vt -1.073396 -0.327995
vt -0.165911 -0.327995
vt 1.675810 -0.327995
vt 0.768324 -0.327995
vt 0.301207 1.327995
vt 1.235730 0.989212
vt -0.633316 0.989212
vt -1.073396 -0.327995
vt -0.165911 -0.327995
vt 1.675810 -0.327995
vt 0.768324 -0.327995
vt 0.398147 0.567448
vt 0.004950 0.990058
vt 0.004950 0.567448
vt 0.165474 0.793341
vt 0.328847 0.206659
vt 0.328847 0.793341
vt 0.096175 0.009943
vt 0.489372 0.432552
vt 0.004950 0.432552
vt 0.398147 0.567448
vt 0.004950 0.990058
vt 0.004950 0.567448
vt 0.165474 0.793341
vt 0.328847 0.206659
vt 0.328847 0.793341
vt 0.096175 0.009943
vt 0.489372 0.432552
vt 0.004950 0.432552
vt 0.398147 0.567448
vt 0.004950 0.990058
vt 0.004950 0.567448
vt 0.165474 0.793341
vt 0.328847 0.206659
vt 0.328847 0.793341
vt 0.096175 0.009943
vt 0.489372 0.432552
vt 0.004950 0.432552
vt 1.420121 0.602282
vt 0.489372 0.990058
vt 0.165475 0.206659
vt 0.489372 0.009943
vt -0.165645 3.336131
vt 1.420121 -0.555722
vt -0.165645 0.602282
vt 1.420121 0.602282
vt -0.165645 0.602282
vt 1.420121 0.602282
vt 1.420121 3.336131
vt 1.420121 -0.555722
vt -0.165645 0.602282
vt 1.420121 0.602282
vt 1.420121 0.602282
vt -0.165645 3.336131
vt 1.420121 -0.555722
vt 1.420121 2.178127
vt 0.281822 0.602282
vt 1.420121 0.602282
vt 1.420121 -0.555722
vt 1.420121 3.336131
vt 1.420121 2.178127
vt 0.489372 0.990058
vt 0.165475 0.206659
vt 0.489372 0.009943
vt 0.489372 0.990058
vt 0.165475 0.206659
vt 0.489372 0.009943
vt 0.489372 0.990058
vt 0.165475 0.206659
vt 0.489372 0.009943
vt 0.703162 0.564740
vt 0.632630 0.654980
vt 0.633874 0.564991
vt 0.701154 0.654068
vt 0.633498 0.564685
vt 0.701876 0.565240
vt 0.971892 0.486690
vt 0.907279 0.517023
vt 0.861249 0.486690
vt 0.703162 0.564740
vt 0.632630 0.654980
vt 0.633874 0.564991
vt 0.701154 0.654068
vt 0.633498 0.564685
vt 0.701876 0.565240
vt 0.971892 0.486690
vt 0.907279 0.517023
vt 0.861249 0.486690
vt 0.703162 0.564740
vt 0.632630 0.654980
vt 0.633874 0.564991
vt 0.701154 0.654068
vt 0.633498 0.564685
vt 0.701876 0.565240
vt 0.971892 0.486690
vt 0.907279 0.517023
vt 0.861249 0.486690
vt 0.703162 0.564740
vt 0.632630 0.654980
vt 0.633874 0.564991
vt 0.701154 0.654068
vt 0.633498 0.564685
vt 0.701876 0.565240
vt 0.971892 0.486690
vt 0.907279 0.517023
vt 0.861249 0.486690
vt 0.505980 0.196641
vt 0.505980 0.218859
vt 0.505980 0.241077
vt 0.346995 0.263295
vt 0.346995 0.241077
vt 0.346995 0.196641
vt 0.505980 0.285512
vt 0.505980 0.285512
vt 0.505980 0.508386
vt 0.346995 0.524315
vt 0.346995 0.285512
vt 0.346995 0.285512
vt 0.925862 0.517023
vt 0.925862 0.517023
vt 0.925862 0.517023
vt 0.925862 0.517023
vt 0.505980 0.524315
vt 0.505980 0.524315
vt 0.505980 0.196641
vt 0.505980 0.263294
vt 0.346995 0.196641
vt 0.346995 0.218859
vt 0.346995 0.524315
vt 0.505980 0.524315
vt 0.346995 0.524315
vt 0.111951 0.964659
vt 0.111951 0.834051
vt 0.233919 0.834051
vt 0.234298 0.964659
vt 0.111951 0.834051
vt 0.234298 0.834051
vt 0.234298 0.964659
vt 0.111951 0.834051
vt 0.234298 0.834051
vt 0.234298 0.964659
vt 0.111951 0.834051
vt 0.234298 0.834051
vt 0.490131 0.001780
vt 0.959906 -0.001282
vt 0.964061 0.443224
vt 0.300515 0.551171
vt 0.300516 0.764346
vt 0.043118 0.993676
vt 0.112933 -0.008984
vt 0.024846 0.993676
vt 0.024845 -0.008984
vt 0.316465 0.993676
vt 0.039842 -0.008984
vt 0.316468 -0.008984
vt 0.301471 0.993676
vt 0.301474 -0.008984
vt 0.263913 0.814570
vt 0.263912 0.993676
vt 0.060928 0.993676
vt 0.206563 0.986506
vt 0.011191 0.985232
vt 0.020414 -0.001282
vt 0.234298 0.834051
vt 0.234298 0.964659
vt 0.111951 0.964659
vt 0.111951 0.964659
vt 0.111951 0.964659
vt 0.969129 0.985353
vt 0.769388 0.986655
vt 0.499354 0.988415
vt 0.300517 0.814570
vt 0.300518 0.993676
vt 0.043120 -0.008984
vt 0.300515 0.442742
vt 0.300515 -0.008984
vt 0.112933 0.993676
vt 0.039839 0.993676
vt 0.041702 0.993676
vt 0.041700 0.814570
vt 0.478735 0.988280
vt 0.376565 0.680482
vt 0.623435 0.696431
vt 0.376565 0.696431
vt 0.623436 0.680482
vt 0.376565 0.700086
vt 0.376565 0.680482
vt 0.375763 0.680135
vt 0.624236 0.656469
vt 0.624236 0.680135
vt 0.375763 0.680135
vt 0.624236 0.656469
vt 0.624236 0.680135
vt 0.623435 0.680481
vt 0.376565 0.702226
vt 0.376565 0.680482
vt 0.375764 0.680135
vt 0.624236 0.656469
vt 0.624236 0.680135
vt 0.375763 0.680135
vt 0.624237 0.656469
vt 0.624237 0.680135
vt 0.491311 0.285512
vt 0.376565 0.715416
vt 0.376565 0.680482
vt 0.402149 0.680482
vt 0.363472 0.508386
vt 0.623435 0.680482
vt 0.623435 0.700087
vt 0.375763 0.656469
vt 0.375763 0.656469
vt 0.623436 0.702226
vt 0.375763 0.656469
vt 0.375763 0.656469
vt 0.491311 0.508386
vt 0.623436 0.680482
vt 0.623435 0.715416
vt 0.600657 0.680482
vt 0.363472 0.285512
vt 0.960086 0.764346
vt 0.960086 0.551171
vt 1.001185 0.442742
vt 1.244177 0.005280
vt 1.368376 0.005280
vt 1.368378 0.994732
vt 0.077863 0.988192
vt 0.001246 0.004039
vt 0.077863 0.004039
vt 0.960086 0.442742
vt 0.737871 0.551171
vt 0.737871 0.442742
vt 0.150254 0.988197
vt 0.077971 0.004039
vt 0.150253 0.004039
vt 2.451167 0.005276
vt 2.326967 0.994733
vt 2.326967 0.005276
vt 0.737872 0.764346
vt 0.737873 0.814570
vt 0.960086 0.814570
vt 1.001186 -0.008991
vt 1.033729 -0.008991
vt 1.033727 0.993676
vt 0.960085 0.993676
vt 1.485463 0.005280
vt 1.485464 0.994731
vt 1.244179 0.994732
vt 1.123536 0.994732
vt 1.123535 0.005281
vt 0.001246 0.988192
vt 0.077971 0.988197
vt 2.209880 0.994733
vt 2.209880 0.005276
vt 2.451167 0.994733
vt 2.571810 0.005276
vt 2.571810 0.994733
vt 0.769631 0.442300
vt 0.988426 0.876651
vt 0.988425 0.442300
vt 0.769631 0.876651
vn 0.0000 0.3253 -0.9456
vn 0.6123 0.7906 0.0000
vn 0.0000 1.0000 0.0000
vn -0.6123 0.7906 0.0000
vn 0.0000 0.9401 0.3408
vn 0.0000 0.9369 -0.3496
vn 0.0000 0.3253 0.9456
vn 1.0000 -0.0000 0.0000
vn -1.0000 0.0000 0.0000
vn 0.0000 0.0000 1.0000
vn 0.0000 -0.0000 -1.0000
usemtl Roof04
s off
f 55/1/1 100/2/1 104/3/1
f 7/4/2 14/5/2 10/6/2
f 13/7/3 14/8/3 12/9/3
f 8/10/4 15/11/4 13/12/4
f 21/13/5 102/14/5 103/15/5
f 59/16/6 24/17/6 21/18/6
f 111/19/7 105/20/7 101/21/7
f 131/22/7 101/23/7 22/24/7
f 101/23/5 19/25/5 22/24/5
f 100/26/6 19/27/6 16/28/6
f 135/29/1 59/30/1 20/31/1
f 2/32/7 22/33/7 103/34/7
f 19/35/5 103/34/5 22/33/5
f 20/36/6 21/37/6 19/38/6
f 55/39/1 57/40/1 20/41/1
f 128/42/7 103/15/7 102/14/7
f 104/43/6 16/44/6 99/45/6
f 105/20/5 16/46/5 101/21/5
f 58/47/1 120/48/1 56/49/1
f 99/50/8 105/51/8 104/52/8
f 106/53/8 17/54/8 105/51/8
f 18/55/8 104/52/8 4/56/8
f 104/52/8 105/51/8 4/56/8
f 4/56/8 105/51/8 17/54/8
f 24/57/9 56/58/9 102/59/9
f 110/60/9 102/59/9 119/61/9
f 120/62/9 118/63/9 56/58/9
f 56/58/9 118/63/9 102/59/9
f 118/63/9 119/61/9 102/59/9
f 26/64/2 33/65/2 29/66/2
f 32/67/3 33/68/3 31/69/3
f 27/70/4 34/71/4 32/72/4
f 36/73/2 43/74/2 39/75/2
f 42/76/3 43/77/3 41/78/3
f 37/79/4 44/80/4 42/81/4
f 46/82/2 53/83/2 49/84/2
f 52/85/3 53/86/3 51/87/3
f 47/88/4 54/89/4 52/90/4
f 55/1/1 104/3/1 18/91/1
f 7/4/2 12/92/2 14/5/2
f 13/7/3 15/93/3 14/8/3
f 8/10/4 11/94/4 15/11/4
f 21/13/5 24/95/5 102/14/5
f 59/16/6 56/96/6 24/17/6
f 101/21/7 5/97/7 111/19/7
f 111/19/7 106/98/7 105/20/7
f 22/24/7 23/99/7 131/22/7
f 131/22/7 5/100/7 101/23/7
f 101/23/5 16/101/5 19/25/5
f 100/26/6 20/102/6 19/27/6
f 59/30/1 135/29/1 58/103/1
f 135/29/1 20/31/1 57/104/1
f 2/32/7 23/105/7 22/33/7
f 19/35/5 21/106/5 103/34/5
f 20/36/6 59/107/6 21/37/6
f 55/39/1 20/41/1 100/108/1
f 102/14/7 110/109/7 128/42/7
f 128/42/7 2/110/7 103/15/7
f 104/43/6 100/111/6 16/44/6
f 105/20/5 99/112/5 16/46/5
f 58/47/1 56/49/1 59/113/1
f 26/64/2 31/114/2 33/65/2
f 32/67/3 34/115/3 33/68/3
f 27/70/4 30/116/4 34/71/4
f 36/73/2 41/117/2 43/74/2
f 42/76/3 44/118/3 43/77/3
f 37/79/4 40/119/4 44/80/4
f 46/82/2 51/120/2 53/83/2
f 52/85/3 54/121/3 53/86/3
f 47/88/4 50/122/4 54/89/4
usemtl Fassade01
f 8/123/9 6/124/9 11/125/9
f 9/126/8 7/127/8 10/128/8
f 10/129/10 15/130/10 11/131/10
f 27/132/9 25/133/9 30/134/9
f 28/135/8 26/136/8 29/137/8
f 29/138/10 34/139/10 30/140/10
f 37/141/9 35/142/9 40/143/9
f 38/144/8 36/145/8 39/146/8
f 39/147/10 44/148/10 40/149/10
f 47/150/9 45/151/9 50/152/9
f 48/153/8 46/154/8 49/155/8
f 49/156/10 54/157/10 50/158/10
f 62/159/8 74/160/8 73/161/8
f 77/162/9 76/163/9 63/164/9
f 70/165/8 91/166/8 94/167/8
f 68/168/9 92/169/9 71/170/9
f 10/129/10 14/171/10 15/130/10
f 29/138/10 33/172/10 34/139/10
f 39/147/10 43/173/10 44/148/10
f 49/156/10 53/174/10 54/157/10
f 69/175/8 65/176/8 70/165/8
f 65/176/8 62/159/8 70/165/8
f 62/159/8 66/177/8 74/160/8
f 73/161/8 72/178/8 62/159/8
f 72/178/8 70/165/8 62/159/8
f 67/179/9 63/164/9 75/180/9
f 63/164/9 64/181/9 71/170/9
f 75/180/9 63/164/9 76/163/9
f 64/181/9 68/168/9 71/170/9
f 71/170/9 77/162/9 63/164/9
f 90/182/8 69/175/8 94/167/8
f 69/175/8 70/165/8 94/167/8
f 68/168/9 93/183/9 92/169/9
usemtl Fassade04
f 11/184/10 6/185/10 107/186/10
f 29/187/10 25/188/10 28/189/10
f 39/190/10 35/191/10 38/192/10
f 49/193/10 45/194/10 48/195/10
f 134/196/11 115/197/11 113/198/11
f 125/199/10 124/200/10 23/201/10
f 127/202/10 110/203/10 108/204/10
f 23/205/10 129/206/10 130/207/10
f 2/208/10 127/202/10 129/209/10
f 132/210/10 111/211/10 5/212/10
f 55/213/11 114/214/11 112/215/11
f 107/186/10 9/216/10 10/217/10
f 10/217/10 11/184/10 107/186/10
f 29/187/10 30/218/10 25/188/10
f 39/190/10 40/219/10 35/191/10
f 49/193/10 50/220/10 45/194/10
f 113/198/11 116/221/11 58/222/11
f 58/222/11 135/223/11 113/198/11
f 135/223/11 134/196/11 113/198/11
f 133/224/10 131/225/10 23/201/10
f 23/201/10 130/226/10 65/227/10
f 130/226/10 62/228/10 65/227/10
f 124/200/10 133/224/10 23/201/10
f 23/201/10 65/227/10 125/199/10
f 127/202/10 128/229/10 110/203/10
f 23/205/10 2/230/10 129/206/10
f 2/208/10 128/229/10 127/202/10
f 5/212/10 131/231/10 133/232/10
f 133/232/10 132/210/10 5/212/10
f 112/215/11 134/196/11 55/213/11
f 134/196/11 135/223/11 57/233/11
f 57/233/11 55/213/11 134/196/11
usemtl Fassade01_windowless
f 80/234/3 83/235/3 85/236/3
f 72/237/3 81/238/3 77/239/3
f 77/240/10 70/241/10 72/242/10
f 80/243/10 78/244/10 79/245/10
f 82/246/3 89/247/3 84/248/3
f 84/249/10 83/250/10 82/251/10
f 87/252/10 88/253/10 86/254/10
f 96/255/10 94/167/10 91/166/10
f 71/256/3 92/257/3 95/258/3
f 97/259/10 93/183/10 90/182/10
f 80/234/3 79/260/3 83/235/3
f 72/237/3 78/261/3 81/238/3
f 77/240/10 71/262/10 70/241/10
f 80/243/10 81/263/10 78/244/10
f 82/246/3 88/264/3 89/247/3
f 84/249/10 85/265/10 83/250/10
f 87/252/10 89/266/10 88/253/10
f 96/255/10 98/267/10 94/167/10
f 91/268/3 70/269/3 96/270/3
f 70/269/3 71/256/3 95/258/3
f 96/270/3 70/269/3 95/258/3
f 90/182/10 94/167/10 98/267/10
f 97/259/10 95/271/10 92/169/10
f 90/182/10 98/267/10 97/259/10
f 97/259/10 92/169/10 93/183/10
usemtl Fassade04_windowless
f 123/272/10 126/273/10 64/274/10
f 61/275/8 60/276/8 4/277/8
f 114/278/11 3/279/11 112/280/11
f 109/281/10 125/282/10 65/283/10
f 120/284/11 115/285/11 117/286/11
f 122/287/9 118/288/9 121/289/9
f 126/273/10 124/290/10 125/282/10
f 133/291/10 123/272/10 132/292/10
f 63/293/10 1/294/10 64/274/10
f 1/294/10 106/295/10 64/274/10
f 106/295/10 111/296/10 132/292/10
f 106/295/10 132/292/10 123/272/10
f 126/273/10 109/281/10 64/274/10
f 106/295/10 123/272/10 64/274/10
f 60/276/8 3/297/8 4/277/8
f 3/297/8 18/298/8 4/277/8
f 4/277/8 17/299/8 61/275/8
f 17/299/8 106/300/8 1/301/8
f 1/301/8 61/275/8 17/299/8
f 114/278/11 18/302/11 3/279/11
f 109/281/10 126/273/10 125/282/10
f 120/284/11 116/303/11 115/285/11
f 121/289/9 120/304/9 117/305/9
f 118/288/9 122/287/9 119/306/9
f 119/306/9 108/307/9 110/308/9
f 121/289/9 118/288/9 120/304/9
f 108/307/9 119/306/9 122/287/9
f 126/273/10 123/272/10 124/290/10
f 133/291/10 124/290/10 123/272/10
usemtl Doors
f 95/309/10 98/310/10 96/311/10
f 95/309/10 97/312/10 98/310/10
