# Blender v2.82 (sub 7) OBJ File: 'housesv2.blend'
# www.blender.org
mtllib citybuilding5.mtl
v 4.000000 0.000000 2.000000
v -2.000000 7.986617 2.000000
v 4.000000 0.000000 -2.000000
v 4.000001 7.986617 -0.705968
v 2.000000 7.986617 2.000000
v 2.467871 7.986617 2.000000
v 3.532130 9.502178 1.478975
v 2.467871 9.502178 1.478975
v 3.532130 7.986617 2.000000
v 3.532130 9.502178 2.000000
v 2.467871 9.502178 2.000000
v 3.089376 9.845059 1.358093
v 2.910625 9.845059 1.358093
v 3.089376 9.845059 2.000000
v 2.910625 9.845059 2.000000
v 2.000000 10.363746 -0.019651
v 4.000001 7.986617 0.666666
v 4.000001 7.986617 -1.999999
v -0.000001 10.363746 -0.019651
v -0.000001 9.865984 -1.353406
v -2.000002 10.363746 -0.019651
v -0.000001 9.865984 1.353406
v -0.000001 7.986617 1.999999
v -4.000001 10.363746 -0.019651
v 0.467870 7.986617 2.000000
v 1.532130 9.502178 1.478975
v 0.467870 9.502178 1.478975
v 1.532130 7.986617 2.000000
v 1.532130 9.502178 2.000000
v 0.467870 9.502178 2.000000
v 1.089376 9.845059 1.358093
v 0.910625 9.845059 1.358093
v 1.089376 9.845059 2.000000
v 0.910625 9.845059 2.000000
v -1.532130 7.986617 2.000000
v -0.467870 9.502178 1.478975
v -1.532130 9.502178 1.478975
v -0.467870 7.986617 2.000000
v -0.467870 9.502178 2.000000
v -1.532130 9.502178 2.000000
v -0.910624 9.845059 1.358093
v -1.089375 9.845059 1.358093
v -0.910624 9.845059 2.000000
v -1.089375 9.845059 2.000000
v -3.532130 7.986617 2.000000
v -2.467870 9.502178 1.478975
v -3.532130 9.502178 1.478975
v -2.467870 7.986617 2.000000
v -2.467870 9.502178 2.000000
v -3.532130 9.502178 2.000000
v -2.910624 9.845059 1.358093
v -3.089375 9.845059 1.358093
v -2.910624 9.845059 2.000000
v -3.089375 9.845059 2.000000
v 2.000000 7.986617 -2.000000
v -4.000001 9.865984 -1.353406
v -0.000001 7.986617 -1.999999
v -2.000000 7.986617 -2.000000
v -2.000002 9.865984 -1.353406
v 4.000000 0.000000 -0.705967
v 4.000000 0.000000 0.666667
v 1.860964 0.000000 2.000000
v 3.764719 0.000000 2.000000
v 3.764719 3.911308 2.000000
v 1.860964 3.911307 2.000000
v 1.860964 -0.000000 1.287278
v 3.764719 -0.000000 1.287278
v 3.764719 3.911308 1.287278
v 1.860964 3.911307 1.287278
v 1.860964 1.060812 1.287278
v 3.764719 1.060817 1.287278
v 1.860964 0.795609 1.287278
v 1.860964 0.530406 1.287278
v 1.860964 0.265203 1.287278
v 3.764719 0.265204 1.287278
v 3.764719 0.530408 1.287278
v 3.764719 0.795613 1.287278
v 1.860964 0.795609 1.508390
v 1.860964 0.530406 1.508390
v 3.764719 0.530408 1.508390
v 3.764719 0.795613 1.508390
v 1.860964 0.265203 1.688270
v 1.860964 0.530406 1.688270
v 3.764719 0.265204 1.688270
v 3.764719 0.530408 1.688270
v 1.860964 0.000000 1.933518
v 3.764719 0.000000 1.933518
v 1.860964 0.265203 1.933518
v 3.764719 0.265204 1.933518
v 1.860964 3.911307 0.893268
v 1.860964 1.060812 0.893269
v 3.764719 1.060817 0.893269
v 3.764719 3.911308 0.893268
v 1.860964 3.721162 0.893268
v 3.567422 1.060816 0.893269
v 2.036619 1.060812 0.893269
v 3.567422 3.721162 0.893268
v 2.036619 3.721162 0.893268
v 4.000000 10.363746 -0.019651
v 1.999999 9.865984 -1.353406
v 1.999999 9.865984 1.353406
v -4.000001 9.865984 1.353406
v -2.000001 9.865984 1.353406
v 3.999999 9.865984 -1.353406
v 3.999999 9.865984 1.353406
v 3.999999 7.986617 1.999999
v 3.528832 7.986617 2.000000
v -4.000000 0.000000 2.000000
v 3.467575 3.911308 2.000000
v -3.999992 7.986617 2.000000
v 3.467567 7.986617 1.999999
v 3.435654 0.000000 -2.000000
v -3.467575 3.911308 -2.000000
v 3.435646 7.986617 -2.000000
v -3.467578 0.000000 -2.000000
v -3.467577 7.986617 -2.000000
v -4.000003 0.000000 -2.000000
v -4.000004 7.986617 -0.705968
v -4.000004 7.986617 0.666666
v -4.000004 7.986617 -1.999999
v -4.000003 0.000000 -0.705967
v -4.000003 0.000000 0.666667
v 3.467571 6.695939 2.000000
v 1.860977 6.695941 2.000000
v 1.860972 5.640404 2.000000
v 3.467573 5.640404 2.000000
v -3.363121 0.000000 2.000000
v -3.363121 7.986617 2.000000
vt -0.165645 0.602282
vt -0.165646 2.178127
vt 1.420121 2.178127
vt 0.398147 0.567448
vt 0.004950 0.990058
vt 0.004950 0.567448
vt 0.165474 0.793341
vt 0.328847 0.206659
vt 0.328847 0.793341
vt 0.096175 0.009943
vt 0.489372 0.432552
vt 0.004950 0.432552
vt 1.420121 3.336131
vt -0.165646 2.178127
vt 1.420121 2.178127
vt -0.165645 -0.555722
vt 1.420121 0.602282
vt -0.165646 0.602282
vt 0.997965 0.602282
vt 1.420121 2.178127
vt -0.165646 2.178127
vt 1.420121 0.602282
vt -0.165646 2.178127
vt -0.165645 0.602282
vt 1.420121 2.178127
vt -0.165645 3.336131
vt -0.165645 -0.555722
vt 1.420121 0.602282
vt -0.165646 0.602282
vt -0.165645 0.602282
vt -0.165646 2.178127
vt 1.420121 2.178127
vt 1.420121 0.602282
vt -0.165646 2.178127
vt -0.165645 0.602282
vt 1.420121 3.336131
vt 1.420121 2.178127
vt -0.165645 -0.555722
vt 1.420121 0.602282
vt -0.165646 0.602282
vt 1.420121 0.602282
vt -0.165645 0.602282
vt -0.165646 2.178127
vt 0.644299 0.602282
vt -0.165645 -0.555722
vt 1.420121 0.602282
vt -0.165646 0.602282
vt -0.165645 3.336131
vt 1.420121 0.602282
vt -0.165645 0.602282
vt -0.165646 2.178127
vt 0.301207 1.327995
vt -0.633316 0.989212
vt 1.235730 0.989212
vt -1.073396 -0.327995
vt -0.165911 -0.327995
vt 1.675810 -0.327995
vt 0.768324 -0.327995
vt 0.301207 1.327995
vt 1.235730 0.989212
vt -0.633316 0.989212
vt -1.073396 -0.327995
vt -0.165911 -0.327995
vt 1.675810 -0.327995
vt 0.768324 -0.327995
vt 0.398147 0.567448
vt 0.004950 0.990058
vt 0.004950 0.567448
vt 0.165474 0.793341
vt 0.328847 0.206659
vt 0.328847 0.793341
vt 0.096175 0.009943
vt 0.489372 0.432552
vt 0.004950 0.432552
vt 0.398147 0.567448
vt 0.004950 0.990058
vt 0.004950 0.567448
vt 0.165474 0.793341
vt 0.328847 0.206659
vt 0.328847 0.793341
vt 0.096175 0.009943
vt 0.489372 0.432552
vt 0.004950 0.432552
vt 0.398147 0.567448
vt 0.004950 0.990058
vt 0.004950 0.567448
vt 0.165474 0.793341
vt 0.328847 0.206659
vt 0.328847 0.793341
vt 0.096175 0.009943
vt 0.489372 0.432552
vt 0.004950 0.432552
vt 1.420121 0.602282
vt 0.489372 0.990058
vt 0.165475 0.206659
vt 0.489372 0.009943
vt -0.165645 3.336131
vt 1.420121 -0.555722
vt -0.165645 0.602282
vt 1.420121 0.602282
vt 1.420121 3.336131
vt 1.420121 -0.555722
vt 1.420121 0.602282
vt -0.165645 3.336131
vt 1.420121 -0.555722
vt 1.420121 2.178127
vt 0.281822 0.602282
vt 1.420121 0.602282
vt 1.420121 -0.555722
vt 1.420121 3.336131
vt 1.420121 2.178127
vt 0.489372 0.990058
vt 0.165475 0.206659
vt 0.489372 0.009943
vt 0.489372 0.990058
vt 0.165475 0.206659
vt 0.489372 0.009943
vt 0.489372 0.990058
vt 0.165475 0.206659
vt 0.489372 0.009943
vt 0.703162 0.564740
vt 0.632630 0.654980
vt 0.633874 0.564991
vt 0.701154 0.654068
vt 0.633498 0.564685
vt 0.701876 0.565240
vt 0.971892 0.486690
vt 0.907279 0.517023
vt 0.861249 0.486690
vt 0.703162 0.564740
vt 0.632630 0.654980
vt 0.633874 0.564991
vt 0.701154 0.654068
vt 0.633498 0.564685
vt 0.701876 0.565240
vt 0.971892 0.486690
vt 0.907279 0.517023
vt 0.861249 0.486690
vt 0.703162 0.564740
vt 0.632630 0.654980
vt 0.633874 0.564991
vt 0.701154 0.654068
vt 0.633498 0.564685
vt 0.701876 0.565240
vt 0.971892 0.486690
vt 0.907279 0.517023
vt 0.861249 0.486690
vt 0.703162 0.564740
vt 0.632630 0.654980
vt 0.633874 0.564991
vt 0.701154 0.654068
vt 0.633498 0.564685
vt 0.701876 0.565240
vt 0.971892 0.486690
vt 0.907279 0.517023
vt 0.861249 0.486690
vt 0.505980 0.196641
vt 0.505980 0.218859
vt 0.505980 0.241077
vt 0.346995 0.263295
vt 0.346995 0.241077
vt 0.346995 0.196641
vt 0.505980 0.285512
vt 0.505980 0.285512
vt 0.505980 0.508386
vt 0.346995 0.524315
vt 0.346995 0.285512
vt 0.346995 0.285512
vt 0.925862 0.517023
vt 0.925862 0.517023
vt 0.925862 0.517023
vt 0.925862 0.517023
vt 0.505980 0.524315
vt 0.505980 0.524315
vt 0.505980 0.196641
vt 0.505980 0.263294
vt 0.346995 0.196641
vt 0.346995 0.218859
vt 0.346995 0.524315
vt 0.505980 0.524315
vt 0.346995 0.524315
vt 0.376565 0.680482
vt 0.623435 0.696431
vt 0.376565 0.696431
vt 0.623436 0.680482
vt 0.376565 0.700086
vt 0.376565 0.680482
vt 0.375763 0.680135
vt 0.624236 0.656469
vt 0.624236 0.680135
vt 0.375763 0.680135
vt 0.624236 0.656469
vt 0.624236 0.680135
vt 0.623435 0.680481
vt 0.376565 0.702226
vt 0.376565 0.680482
vt 0.375764 0.680135
vt 0.624236 0.656469
vt 0.624236 0.680135
vt 0.375763 0.680135
vt 0.624237 0.656469
vt 0.624237 0.680135
vt 0.491311 0.285512
vt 0.376565 0.715416
vt 0.376565 0.680482
vt 0.402149 0.680482
vt 0.363472 0.508386
vt 0.623435 0.680482
vt 0.623435 0.700087
vt 0.375763 0.656469
vt 0.375763 0.656469
vt 0.623436 0.702226
vt 0.375763 0.656469
vt 0.375763 0.656469
vt 0.491311 0.508386
vt 0.623436 0.680482
vt 0.623435 0.715416
vt 0.600657 0.680482
vt 0.363472 0.285512
vt 0.769631 0.442300
vt 0.988426 0.876651
vt 0.988425 0.442300
vt 0.769631 0.876651
vt 0.376773 0.917719
vt 0.376773 0.706682
vt 0.627945 0.706681
vt 0.628726 0.917718
vt 0.376773 0.706682
vt 0.628726 0.706682
vt 0.628726 0.917718
vt 0.376773 0.706682
vt 0.628726 0.706682
vt 0.628726 0.917718
vt 0.376773 0.706682
vt 0.628726 0.706682
vt 1.342430 0.492687
vt 0.670710 1.005587
vt 0.005173 0.000428
vt -0.060400 0.987455
vt -0.318386 0.987455
vt -0.318385 0.005406
vt 0.974398 0.698961
vt 0.670333 0.828751
vt 0.670332 0.698961
vt 0.628726 0.706682
vt 0.628726 0.917718
vt 0.376773 0.917719
vt 0.376773 0.917719
vt 0.376773 0.917719
vt 1.342430 1.005587
vt 1.058139 1.005587
vt 0.283280 1.005587
vt 0.005174 1.005587
vt 1.342430 0.000428
vt 0.670331 0.486348
vt 0.318122 0.987455
vt 0.974398 0.828751
vt 0.696644 0.987455
vt 0.974397 0.987455
vt 0.670331 0.005406
vt 1.030637 0.486348
vt 1.075166 0.987455
vt -0.458909 0.005280
vt 0.015784 0.005280
vt 0.015790 0.994732
vt 0.658468 0.994731
vt 0.463294 0.005280
vt 0.658459 0.005280
vt 0.974399 0.486348
vt 3.232044 0.994733
vt 3.047916 0.005276
vt 3.232044 0.005276
vt 4.154252 0.005276
vt 3.679556 0.994733
vt 3.679556 0.005276
vt -0.438921 0.005406
vt 1.030636 0.005420
vt 1.075164 0.005420
vt 0.463299 0.994731
vt -0.458903 0.994732
vt -0.920004 0.994732
vt -0.920010 0.005281
vt 3.047916 0.994733
vt 4.154252 0.994733
vt 4.615354 0.005276
vt 4.615354 0.994733
vt -0.438921 0.987454
vn 0.0000 0.3253 -0.9456
vn 0.6123 0.7906 0.0000
vn 0.0000 1.0000 0.0000
vn -0.6123 0.7906 0.0000
vn 0.0000 0.9401 0.3408
vn 0.0000 0.9369 -0.3496
vn 0.0000 0.3253 0.9456
vn 1.0000 -0.0000 0.0000
vn -1.0000 0.0000 0.0000
vn 0.0000 0.0000 1.0000
vn 0.0000 0.0000 -1.0000
usemtl Roof03
s off
f 55/1/1 100/2/1 104/3/1
f 7/4/2 14/5/2 10/6/2
f 13/7/3 14/8/3 12/9/3
f 8/10/4 15/11/4 13/12/4
f 21/13/5 102/14/5 103/15/5
f 59/16/6 24/17/6 21/18/6
f 111/19/7 105/20/7 101/21/7
f 5/22/7 22/23/7 23/24/7
f 101/25/5 19/26/5 22/23/5
f 100/27/6 19/28/6 16/29/6
f 58/30/1 59/31/1 20/32/1
f 23/33/7 103/34/7 2/35/7
f 19/36/5 103/34/5 22/37/5
f 20/38/6 21/39/6 19/40/6
f 55/41/1 57/42/1 20/43/1
f 128/44/7 103/15/7 102/14/7
f 104/45/6 16/46/6 99/47/6
f 105/20/5 16/48/5 101/21/5
f 58/49/1 120/50/1 56/51/1
f 99/52/8 105/53/8 104/54/8
f 106/55/8 17/56/8 105/53/8
f 18/57/8 104/54/8 4/58/8
f 104/54/8 105/53/8 4/58/8
f 4/58/8 105/53/8 17/56/8
f 24/59/9 56/60/9 102/61/9
f 110/62/9 102/61/9 119/63/9
f 120/64/9 118/65/9 56/60/9
f 56/60/9 118/65/9 102/61/9
f 118/65/9 119/63/9 102/61/9
f 26/66/2 33/67/2 29/68/2
f 32/69/3 33/70/3 31/71/3
f 27/72/4 34/73/4 32/74/4
f 36/75/2 43/76/2 39/77/2
f 42/78/3 43/79/3 41/80/3
f 37/81/4 44/82/4 42/83/4
f 46/84/2 53/85/2 49/86/2
f 52/87/3 53/88/3 51/89/3
f 47/90/4 54/91/4 52/92/4
f 55/1/1 104/3/1 18/93/1
f 7/4/2 12/94/2 14/5/2
f 13/7/3 15/95/3 14/8/3
f 8/10/4 11/96/4 15/11/4
f 21/13/5 24/97/5 102/14/5
f 59/16/6 56/98/6 24/17/6
f 101/21/7 5/99/7 111/19/7
f 111/19/7 106/100/7 105/20/7
f 5/22/7 101/25/7 22/23/7
f 101/25/5 16/101/5 19/26/5
f 100/27/6 20/102/6 19/28/6
f 58/30/1 20/32/1 57/103/1
f 23/33/7 22/37/7 103/34/7
f 19/36/5 21/104/5 103/34/5
f 20/38/6 59/105/6 21/39/6
f 55/41/1 20/43/1 100/106/1
f 102/14/7 110/107/7 128/44/7
f 128/44/7 2/108/7 103/15/7
f 104/45/6 100/109/6 16/46/6
f 105/20/5 99/110/5 16/48/5
f 58/49/1 56/51/1 59/111/1
f 26/66/2 31/112/2 33/67/2
f 32/69/3 34/113/3 33/70/3
f 27/72/4 30/114/4 34/73/4
f 36/75/2 41/115/2 43/76/2
f 42/78/3 44/116/3 43/79/3
f 37/81/4 40/117/4 44/82/4
f 46/84/2 51/118/2 53/85/2
f 52/87/3 54/119/3 53/88/3
f 47/90/4 50/120/4 54/91/4
usemtl Fassade01
f 8/121/9 6/122/9 11/123/9
f 9/124/8 7/125/8 10/126/8
f 10/127/10 15/128/10 11/129/10
f 27/130/9 25/131/9 30/132/9
f 28/133/8 26/134/8 29/135/8
f 29/136/10 34/137/10 30/138/10
f 37/139/9 35/140/9 40/141/9
f 38/142/8 36/143/8 39/144/8
f 39/145/10 44/146/10 40/147/10
f 47/148/9 45/149/9 50/150/9
f 48/151/8 46/152/8 49/153/8
f 49/154/10 54/155/10 50/156/10
f 62/157/8 74/158/8 73/159/8
f 77/160/9 76/161/9 63/162/9
f 70/163/8 91/164/8 94/165/8
f 68/166/9 92/167/9 71/168/9
f 10/127/10 14/169/10 15/128/10
f 29/136/10 33/170/10 34/137/10
f 39/145/10 43/171/10 44/146/10
f 49/154/10 53/172/10 54/155/10
f 69/173/8 65/174/8 70/163/8
f 65/174/8 62/157/8 70/163/8
f 62/157/8 66/175/8 74/158/8
f 73/159/8 72/176/8 62/157/8
f 72/176/8 70/163/8 62/157/8
f 67/177/9 63/162/9 75/178/9
f 63/162/9 64/179/9 71/168/9
f 75/178/9 63/162/9 76/161/9
f 64/179/9 68/166/9 71/168/9
f 71/168/9 77/160/9 63/162/9
f 90/180/8 69/173/8 94/165/8
f 69/173/8 70/163/8 94/165/8
f 68/166/9 93/181/9 92/167/9
usemtl Fassade01_windowless
f 80/182/3 83/183/3 85/184/3
f 72/185/3 81/186/3 77/187/3
f 77/188/10 70/189/10 72/190/10
f 80/191/10 78/192/10 79/193/10
f 82/194/3 89/195/3 84/196/3
f 84/197/10 83/198/10 82/199/10
f 87/200/10 88/201/10 86/202/10
f 96/203/10 94/165/10 91/164/10
f 71/204/3 92/205/3 95/206/3
f 97/207/10 93/181/10 90/180/10
f 80/182/3 79/208/3 83/183/3
f 72/185/3 78/209/3 81/186/3
f 77/188/10 71/210/10 70/189/10
f 80/191/10 81/211/10 78/192/10
f 82/194/3 88/212/3 89/195/3
f 84/197/10 85/213/10 83/198/10
f 87/200/10 89/214/10 88/201/10
f 96/203/10 98/215/10 94/165/10
f 91/216/3 70/217/3 96/218/3
f 70/217/3 71/204/3 95/206/3
f 96/218/3 70/217/3 95/206/3
f 90/180/10 94/165/10 98/215/10
f 97/207/10 95/219/10 92/167/10
f 90/180/10 98/215/10 97/207/10
f 97/207/10 92/167/10 93/181/10
usemtl Doors
f 95/220/10 98/221/10 96/222/10
f 95/220/10 97/223/10 98/221/10
usemtl Fassade09
f 11/224/10 6/225/10 107/226/10
f 29/227/10 25/228/10 28/229/10
f 39/230/10 35/231/10 38/232/10
f 49/233/10 45/234/10 48/235/10
f 113/236/11 57/237/11 112/238/11
f 2/239/10 128/240/10 127/241/10
f 126/242/10 124/243/10 125/244/10
f 107/226/10 9/245/10 10/246/10
f 10/246/10 11/224/10 107/226/10
f 29/227/10 30/247/10 25/228/10
f 39/230/10 40/248/10 35/231/10
f 49/233/10 50/249/10 45/234/10
f 113/236/11 116/250/11 58/251/11
f 57/237/11 55/252/11 112/238/11
f 55/252/11 114/253/11 112/238/11
f 113/236/11 58/251/11 57/237/11
f 112/238/11 115/254/11 113/236/11
f 65/255/10 125/244/10 2/239/10
f 125/244/10 124/243/10 23/256/10
f 2/239/10 125/244/10 23/256/10
f 124/243/10 123/257/10 5/258/10
f 123/257/10 111/259/10 5/258/10
f 5/258/10 23/256/10 124/243/10
f 127/241/10 62/260/10 65/255/10
f 127/241/10 65/255/10 2/239/10
f 126/242/10 123/257/10 124/243/10
usemtl Fassade09_windowless
f 126/242/10 64/261/10 106/262/10
f 61/263/8 60/264/8 4/265/8
f 114/266/11 3/267/11 112/268/11
f 109/269/10 125/244/10 65/255/10
f 120/270/11 115/271/11 117/272/11
f 122/273/9 118/274/9 121/275/9
f 128/240/10 108/276/10 127/241/10
f 63/277/10 1/278/10 64/261/10
f 1/278/10 106/262/10 64/261/10
f 106/262/10 111/259/10 123/257/10
f 123/257/10 126/242/10 106/262/10
f 126/242/10 109/269/10 64/261/10
f 60/264/8 3/267/8 18/279/8
f 4/265/8 17/280/8 61/263/8
f 17/280/8 106/281/8 1/282/8
f 60/264/8 18/279/8 4/265/8
f 1/282/8 61/263/8 17/280/8
f 114/266/11 18/279/11 3/267/11
f 109/269/10 126/242/10 125/244/10
f 120/270/11 116/283/11 115/271/11
f 121/275/9 120/270/9 117/272/9
f 118/274/9 122/273/9 119/284/9
f 119/284/9 108/285/9 110/286/9
f 121/275/9 118/274/9 120/270/9
f 108/285/9 119/284/9 122/273/9
f 128/240/10 110/287/10 108/276/10
