# Blender v2.82 (sub 7) OBJ File: 'housesv2.blend'
# www.blender.org
mtllib publbuild1.mtl
v -8.000000 0.000000 10.000000
v 8.000000 0.000000 10.000000
v 12.000000 -0.000001 -2.000000
v 12.000000 -0.000001 10.000000
v 12.000000 -0.000001 -10.000000
v -8.000000 0.000000 -2.000000
v -7.999996 8.815470 10.000000
v -12.000000 0.000002 -10.000000
v -12.000000 0.000002 -2.000000
v -11.999996 8.815472 10.000000
v -12.000000 0.000002 10.000000
v 8.000000 0.000000 -2.000000
v 8.000002 8.815471 -2.000000
v 8.000000 -0.000000 -10.000000
v -8.000000 -0.000000 -10.000000
v -7.999996 8.815470 -10.000000
v -8.816080 0.000001 -10.000000
v -11.183924 0.000001 -10.000000
v -8.816080 0.000001 10.000000
v -11.183924 0.000001 10.000000
v 8.719306 8.815470 10.000000
v 11.280694 -0.000000 10.000000
v 8.719302 -0.000000 10.000000
v 8.719300 -0.000000 -10.000000
v 11.280692 -0.000000 -10.000000
v 8.000002 13.223207 10.000000
v 12.000002 13.223205 -2.000000
v 12.000002 13.223205 10.000000
v 12.000002 13.223203 -10.000000
v -11.999996 13.223207 -10.000000
v -7.999996 13.223205 10.000000
v -11.999996 13.223207 10.000000
v -7.999996 13.223205 -2.000000
v -11.999996 13.223207 -2.000000
v 8.000002 13.223207 -2.000000
v 8.000002 13.223205 -10.000000
v -7.999996 13.223205 -10.000000
v -11.183917 13.223207 -10.000000
v -8.816073 13.223205 -10.000000
v -11.183917 13.223207 10.000000
v -8.816073 13.223205 10.000000
v 11.280698 13.223205 10.000000
v 8.719306 13.223205 10.000000
v 11.280698 13.223203 -10.000000
v 8.719306 13.223205 -10.000000
v 12.000001 8.815469 -10.000000
v 12.000001 8.815469 -2.000000
v -11.999998 8.815473 -10.000000
v -7.999998 8.815469 -2.000000
v -11.999998 8.815473 -2.000000
v 8.000001 8.815471 10.000000
v 12.000001 8.815469 10.000000
v 8.000001 8.815469 -10.000000
v -8.816077 8.815469 -10.000000
v -11.183920 8.815471 -10.000000
v -8.816077 8.815469 10.000000
v -11.183920 8.815471 10.000000
v 11.280696 8.815469 10.000000
v 8.719303 8.815469 -10.000000
v 11.280695 8.815469 -10.000000
v 10.435116 14.611528 -7.314120
v 10.435116 14.611530 -5.832963
v -10.435108 14.611532 -5.832963
v -10.435108 14.611532 8.674242
v -9.564883 14.611530 8.674242
v -9.564882 14.611530 -5.832963
v -10.435108 14.611532 -7.314120
v 9.564890 14.611532 -5.832963
v 9.564890 14.611532 8.674242
v 10.435116 14.611530 8.674242
v 0.000004 14.611531 -5.832963
v 0.000003 13.223206 -2.000000
vt -6.075093 2.504480
vt -5.045593 1.289287
vt 3.243351 2.504480
vt 8.741215 -7.377357
vt 8.060897 5.000415
vt 8.060897 -7.377357
vt -7.574549 -7.377357
vt -6.894229 5.000415
vt -7.574549 5.000415
vt -7.574549 6.158342
vt 0.583334 5.000415
vt -4.007085 -1.154502
vt -7.242944 -2.369695
vt -1.030647 -2.369695
vt -8.159945 7.650813
vt -6.308831 7.650813
vt -6.894230 8.736166
vt -5.045594 0.613525
vt -6.075092 -0.601669
vt 3.243351 -0.601669
vt 6.837511 8.258089
vt -5.670845 8.258089
vt -1.030647 0.736453
vt 7.258297 -0.478741
vt 8.287796 0.736451
vt 6.837511 2.003911
vt 7.399843 7.650813
vt 9.402267 7.650813
vt 8.741215 8.736166
vt -5.670845 2.003911
vt 0.583334 2.003911
vt -4.007085 -0.478737
vt 6.219789 1.289287
vt 8.741215 5.000415
vt -6.894230 -7.377357
vt 8.741215 6.158342
vt 8.287796 -2.369696
vt 7.258297 -1.154503
vt -5.157259 -1.154502
vt -5.670845 7.650813
vt -7.574549 8.736171
vt -8.797934 7.650813
vt 9.455648 -0.601669
vt 6.219789 0.613525
vt 7.369963 0.613525
vt -6.308831 8.258089
vt -8.159945 8.258089
vt -8.797934 8.258089
vt 9.964600 8.258089
vt 9.402267 8.258089
vt 7.399843 8.258089
vt 9.964600 7.650813
vt 8.060897 8.736171
vt 6.837511 7.650813
vt -0.020257 0.993530
vt 0.016361 0.006654
vt 0.016361 0.993530
vt 1.005804 0.006654
vt 0.394920 0.993530
vt 0.394920 0.006654
vt 1.453537 0.006654
vt 0.842654 0.993530
vt 0.842653 0.006654
vt -0.006761 0.993530
vt 0.604122 0.006654
vt 0.604123 0.993530
vt 0.028142 0.993530
vt -0.582741 0.006654
vt 0.028142 0.006654
vt 1.011378 0.006654
vt 1.012999 0.006654
vt 0.971455 0.993530
vt 0.971455 0.006654
vt -0.012336 0.993530
vt 0.183371 0.993530
vt 0.997882 0.006654
vt 0.997882 0.993530
vt 1.039427 0.993530
vt 1.159967 0.006654
vt 1.039426 0.006654
vt 0.714648 0.993530
vt 0.835188 0.006654
vt 0.835188 0.993530
vt 0.839571 0.006654
vt 0.709178 0.993530
vt 0.709178 0.006654
vt 0.146754 0.993530
vt 0.183371 0.006654
vt 0.146753 0.006654
vt 1.005804 0.500092
vt 0.394920 0.993530
vt 0.394920 0.500092
vt 1.453537 0.500092
vt 0.842654 0.993530
vt 0.842654 0.500092
vt 1.011378 0.500092
vt 0.604123 0.993530
vt 0.604123 0.500092
vt 1.012999 0.500092
vt 0.971455 0.993530
vt 0.971455 0.500092
vt 0.997882 0.500092
vt 1.039427 0.993530
vt 0.997882 0.993530
vt 1.159967 0.500092
vt 1.039427 0.500092
vt 0.839571 0.500092
vt 0.709178 0.993530
vt 0.709178 0.500092
vt 0.146754 0.993530
vt 0.016361 0.500092
vt 0.146754 0.500092
vt 0.183371 0.500092
vt 0.183371 0.993530
vt 0.714648 0.993530
vt 0.835188 0.500092
vt 0.835188 0.993530
vt -0.012336 0.993530
vt 0.435398 0.993530
vt -0.582741 0.993530
vt 0.028142 0.500092
vt 0.028142 0.993530
vt -0.006761 0.993530
vt -0.020257 0.993530
vt 0.016361 0.993530
vt -0.020257 0.006654
vt 1.005804 0.993530
vt 1.453537 0.993530
vt -0.006761 0.006654
vt -0.582741 0.993530
vt 1.011379 0.993530
vt 1.013000 0.993530
vt -0.012335 0.006654
vt 1.159967 0.993530
vt 0.714648 0.006654
vt 0.839571 0.993530
vt 1.005804 0.993530
vt 1.453537 0.993530
vt 1.011379 0.993530
vt 1.013000 0.993530
vt 1.159967 0.993530
vt 0.839571 0.993530
vt 0.714648 0.500092
vt -0.012335 0.500092
vt -0.582741 0.500092
vt -0.006761 0.500092
vt -0.020257 0.500092
vt -4.733454 0.993530
vt -4.557696 0.006654
vt -4.557696 0.993530
vt 5.604249 0.006654
vt 5.449334 0.993530
vt 5.449333 0.006654
vt -4.047737 0.993530
vt -3.871979 0.006654
vt -3.871979 0.993530
vt 1.438746 0.006654
vt 1.593662 0.993530
vt 1.438747 0.993530
vt 5.604249 0.500092
vt 5.449334 0.993530
vt 5.449334 0.500092
vt 1.438746 0.500092
vt 1.593662 0.993530
vt 1.438747 0.993530
vt -4.047737 0.993530
vt -3.871979 0.500092
vt -3.871979 0.993530
vt -4.557696 0.993530
vt -4.733454 0.500092
vt -4.557696 0.500092
vt -4.733454 0.006654
vt 5.604250 0.993530
vt -4.047737 0.006654
vt 1.593662 0.006654
vt 5.604250 0.993530
vt 1.593662 0.500092
vt -4.047737 0.500092
vt -4.733454 0.993530
vn -0.6636 0.7480 0.0000
vn 0.0000 1.0000 0.0000
vn 0.0000 0.6906 0.7232
vn 0.6636 0.7480 0.0000
vn 0.0000 0.8883 -0.4592
vn -0.0000 0.9402 0.3406
vn 0.0000 0.0000 -1.0000
vn -1.0000 0.0000 0.0000
vn 1.0000 -0.0000 0.0000
vn 0.0000 0.0000 1.0000
usemtl Roof03
s off
f 26/1/1 69/2/1 35/3/1
f 70/4/2 68/5/2 69/6/2
f 64/7/2 66/8/2 63/9/2
f 67/10/2 66/8/2 71/11/2
f 63/12/1 30/13/1 34/14/1
f 40/15/3 41/16/3 65/17/3
f 70/18/4 28/19/4 27/20/4
f 36/21/5 37/22/5 67/10/5
f 33/23/4 65/24/4 31/25/4
f 35/26/6 68/5/6 71/11/6
f 43/27/3 42/28/3 70/29/3
f 71/11/6 66/8/6 33/30/6
f 33/30/6 72/31/6 71/11/6
f 72/31/6 35/26/6 71/11/6
f 65/24/4 33/23/4 66/32/4
f 69/2/1 68/33/1 35/3/1
f 70/4/2 62/34/2 68/5/2
f 64/7/2 65/35/2 66/8/2
f 62/34/2 61/36/2 68/5/2
f 61/36/2 67/10/2 71/11/2
f 68/5/2 61/36/2 71/11/2
f 67/10/2 63/9/2 66/8/2
f 34/14/1 32/37/1 64/38/1
f 63/12/1 67/39/1 30/13/1
f 34/14/1 64/38/1 63/12/1
f 41/16/3 31/40/3 65/17/3
f 65/17/3 64/41/3 40/15/3
f 64/41/3 32/42/3 40/15/3
f 27/20/4 29/43/4 62/44/4
f 29/43/4 61/45/4 62/44/4
f 62/44/4 70/18/4 27/20/4
f 37/22/5 39/46/5 67/10/5
f 39/46/5 38/47/5 67/10/5
f 38/47/5 30/48/5 67/10/5
f 67/10/5 61/36/5 36/21/5
f 61/36/5 29/49/5 44/50/5
f 45/51/5 61/36/5 44/50/5
f 45/51/5 36/21/5 61/36/5
f 42/28/3 28/52/3 70/29/3
f 70/29/3 69/53/3 43/27/3
f 69/53/3 26/54/3 43/27/3
usemtl CityBuildingFront01
f 46/55/7 25/56/7 60/57/7
f 11/58/8 50/59/8 9/60/8
f 2/61/8 13/62/8 12/63/8
f 52/64/9 3/65/9 47/66/9
f 49/67/9 1/68/9 6/69/9
f 5/70/9 47/66/9 3/65/9
f 8/71/7 55/72/7 18/73/7
f 49/67/10 12/63/10 13/62/10
f 48/74/8 9/60/8 50/59/8
f 53/75/7 15/76/7 16/77/7
f 15/76/7 54/78/7 16/77/7
f 18/79/7 54/78/7 17/80/7
f 57/81/10 19/82/10 56/83/10
f 22/84/10 21/85/10 23/86/10
f 59/87/7 14/88/7 53/75/7
f 60/57/7 24/89/7 59/87/7
f 10/90/8 34/91/8 50/92/8
f 51/93/8 35/94/8 13/95/8
f 46/96/9 27/97/9 47/98/9
f 48/99/7 38/100/7 55/101/7
f 16/102/7 39/103/7 37/104/7
f 55/105/7 39/103/7 54/106/7
f 58/107/10 43/108/10 21/109/10
f 45/110/7 60/111/7 59/112/7
f 45/110/7 53/113/7 36/114/7
f 40/115/10 56/116/10 41/117/10
f 37/104/7 53/113/7 16/102/7
f 30/118/8 50/92/8 34/91/8
f 13/95/10 35/94/10 72/119/10
f 31/120/9 49/121/9 33/122/9
f 28/123/9 47/98/9 27/97/9
f 29/124/7 60/111/7 44/125/7
f 46/55/7 5/126/7 25/56/7
f 11/58/8 10/127/8 50/59/8
f 2/61/8 51/128/8 13/62/8
f 52/64/9 4/129/9 3/65/9
f 49/67/9 7/130/9 1/68/9
f 5/70/9 46/131/9 47/66/9
f 8/71/7 48/132/7 55/72/7
f 49/67/10 6/69/10 12/63/10
f 48/74/8 8/133/8 9/60/8
f 53/75/7 14/88/7 15/76/7
f 15/76/7 17/80/7 54/78/7
f 18/79/7 55/134/7 54/78/7
f 57/81/10 20/135/10 19/82/10
f 22/84/10 58/136/10 21/85/10
f 59/87/7 24/89/7 14/88/7
f 60/57/7 25/56/7 24/89/7
f 10/90/8 32/137/8 34/91/8
f 51/93/8 26/138/8 35/94/8
f 46/96/9 29/139/9 27/97/9
f 48/99/7 30/140/7 38/100/7
f 16/102/7 54/106/7 39/103/7
f 55/105/7 38/141/7 39/103/7
f 58/107/10 42/142/10 43/108/10
f 45/110/7 44/125/7 60/111/7
f 45/110/7 59/112/7 53/113/7
f 40/115/10 57/143/10 56/116/10
f 37/104/7 36/114/7 53/113/7
f 30/118/8 48/144/8 50/92/8
f 72/119/10 33/122/10 49/121/10
f 49/121/10 13/95/10 72/119/10
f 31/120/9 7/145/9 49/121/9
f 28/123/9 52/146/9 47/98/9
f 29/124/7 46/147/7 60/111/7
usemtl CityBuildingFront01-windowless
f 10/148/10 20/149/10 57/150/10
f 4/151/10 58/152/10 22/153/10
f 56/154/10 1/155/10 7/156/10
f 2/157/10 21/158/10 51/159/10
f 52/160/10 42/161/10 58/162/10
f 51/163/10 43/164/10 26/165/10
f 41/166/10 7/167/10 31/168/10
f 40/169/10 10/170/10 57/171/10
f 10/148/10 11/172/10 20/149/10
f 4/151/10 52/173/10 58/152/10
f 56/154/10 19/174/10 1/155/10
f 2/157/10 23/175/10 21/158/10
f 52/160/10 28/176/10 42/161/10
f 51/163/10 21/177/10 43/164/10
f 41/166/10 56/178/10 7/167/10
f 40/169/10 32/179/10 10/170/10
