# Blender v2.82 (sub 7) OBJ File: 'prefab.blend'
# www.blender.org
mtllib f_corner inner.mtl
o Plane.017
v -2.000000 0.000000 1.000000
v -2.000000 0.000000 -2.000000
v -2.000000 9.000000 1.000000
v -2.000000 4.500000 1.000000
v 1.000000 4.500000 1.000000
v 1.000000 0.000000 1.000000
v 1.000000 0.000000 -2.000000
v 1.000000 9.000000 1.000000
v 1.000000 9.000000 -2.000000
v 1.000000 4.500000 -2.000000
vt 0.339447 0.490379
vt 0.026532 0.490379
vt 0.026532 0.022089
vt 0.339447 0.022089
vt 0.344746 0.504888
vt 0.020638 0.504888
vt 0.020638 0.019848
vt 0.344746 0.019848
vt 0.335678 0.490379
vt 0.026532 0.490379
vt 0.026532 0.022089
vt 0.335678 0.022089
vt 0.340841 0.504888
vt 0.020638 0.504888
vt 0.020638 0.019848
vt 0.340841 0.019848
vt 0.996098 0.875671
vt 0.623901 0.875671
vt 0.623901 0.504333
vt 0.996098 0.504333
vn 0.0000 0.0000 -1.0000
vn -1.0000 0.0000 0.0000
vn 0.0000 1.0000 0.0000
usemtl Material
s off
f 5/1/1 4/2/1 3/3/1 8/4/1
f 6/5/1 1/6/1 4/7/1 5/8/1
f 10/9/2 5/10/2 8/11/2 9/12/2
f 7/13/2 6/14/2 5/15/2 10/16/2
f 1/17/3 6/18/3 7/19/3 2/20/3
