# Blender v2.82 (sub 7) OBJ File: 'prefab.blend'
# www.blender.org
mtllib haus2x2c.mtl
o Plane.002
v -4.000000 -0.000000 -0.000000
v -4.000000 0.000000 -4.000000
v 0.000000 0.000000 -4.000000
v 0.000000 -0.000000 -0.000000
v 4.000000 0.000000 -4.000000
v 4.000000 -0.000000 -0.000000
v -4.000000 3.000000 -4.000000
v -2.287382 5.000000 -2.173494
v 0.000000 5.000000 -2.173494
v 0.000000 3.000000 -4.000000
v 4.000000 3.000000 0.000000
v 2.287382 5.000000 -1.826500
v 0.000000 5.000000 -1.826500
v 0.000000 3.000000 0.000000
v -4.000000 3.000000 0.000000
v 4.000000 3.000000 -4.000000
v -2.287382 5.000000 -1.826500
v 2.287382 5.000000 -2.173494
v 0.000000 -0.000001 4.000000
v 4.000000 -0.000001 4.000000
v 4.000000 2.999999 4.000000
v 0.000000 2.999999 4.000000
vt 0.401299 0.615385
vt 0.561818 0.615384
vt 0.561818 0.307692
vt 0.401299 0.307692
vt 0.561818 0.000000
vt 0.401299 0.000000
vt 0.811608 0.736502
vt 0.885622 0.879359
vt 0.984475 0.879358
vt 0.984475 0.736501
vt 0.814653 0.739711
vt 0.888666 0.882568
vt 0.987520 0.882568
vt 0.987520 0.739711
vt 0.170881 0.421744
vt 0.170881 0.682454
vt 0.343379 0.682454
vt 0.343379 0.421744
vt 0.350372 0.677938
vt 0.350372 0.417228
vt 0.165912 0.417228
vt 0.165912 0.677938
vt 0.012988 0.414351
vt 0.012988 0.676767
vt 0.173507 0.676767
vt 0.173507 0.414351
vt 0.343959 0.679839
vt 0.343959 0.424662
vt 0.166461 0.424662
vt 0.166461 0.679839
vt 0.401299 0.000000
vt 0.401299 0.307692
vt 0.342236 0.677741
vt 0.342236 0.417031
vt 0.169569 0.417031
vt 0.169569 0.677742
vt 0.910843 0.084669
vt 0.738048 0.084669
vt 0.738048 0.127994
vt 0.910843 0.127994
vt 0.565253 0.084669
vt 0.565253 0.127994
vt 0.819400 0.739711
vt 0.819400 0.882568
vt 0.918253 0.882568
vt 0.992267 0.739711
vt 0.811304 0.737786
vt 0.811304 0.880643
vt 0.910157 0.880643
vt 0.984171 0.737786
vt 0.985968 0.879681
vt 0.912671 0.725835
vt 0.898746 0.725835
vt 0.825448 0.879681
vt 0.821455 0.748547
vt 0.894753 0.902393
vt 0.908678 0.902393
vt 0.981975 0.748547
vt 0.015048 0.420460
vt 0.015048 0.681170
vt 0.172587 0.681170
vt 0.172587 0.420460
vt 0.345714 0.422830
vt 0.345714 0.679105
vt 0.168862 0.679106
vt 0.168862 0.422830
vt 0.983843 0.687714
vt 0.983843 0.950939
vt 0.814833 0.950939
vt 0.814833 0.687714
vt 0.343286 0.415316
vt 0.343286 0.681771
vt 0.168402 0.681771
vt 0.168402 0.415316
vn 0.0000 -1.0000 -0.0000
vn 0.0000 0.6744 -0.7384
vn 0.0000 0.6744 0.7384
vn -0.5774 -0.5774 0.5774
vn -0.5774 0.5774 0.5774
vn 0.0000 -0.0000 1.0000
vn 0.0000 0.0000 -1.0000
vn 1.0000 0.0000 0.0000
vn -1.0000 0.0000 0.0000
vn 0.7071 -0.7071 -0.0000
vn 0.0000 1.0000 0.0000
vn 0.7596 0.6504 0.0000
vn -0.7596 0.6504 0.0000
vn 0.7071 0.7071 0.0000
usemtl Material.003
s 1
f 1/1/1 2/2/1 3/3/1 4/4/1
f 4/4/1 3/3/1 5/5/1 6/6/1
f 7/7/2 8/8/2 9/9/2 10/10/2
f 11/11/3 12/12/3 13/13/3 14/14/3
f 4/15/4 14/16/5 15/17/6 1/18/6
f 3/19/7 10/20/7 16/21/7 5/22/7
f 5/23/8 16/24/8 11/25/8 6/26/8
f 1/27/9 15/28/9 7/29/9 2/30/9
f 4/4/4 6/6/10 20/31/10 19/32/4
f 2/33/7 7/34/7 10/35/7 3/36/7
f 17/37/11 13/38/11 9/39/11 8/40/11
f 13/38/11 12/41/11 18/42/11 9/39/11
f 14/43/3 13/44/3 17/45/3 15/46/3
f 10/47/2 9/48/2 18/49/2 16/50/2
f 16/51/12 18/52/12 12/53/12 11/54/12
f 15/55/13 17/56/13 8/57/13 7/58/13
f 20/59/6 21/60/6 22/61/5 19/62/4
f 14/63/5 4/64/4 19/65/4 22/66/5
f 11/67/14 14/68/5 22/69/5 21/70/14
f 6/71/10 11/72/14 21/73/14 20/74/10
